<?xml version="1.0" encoding="UTF-8" standalone="no"?><!-- Generator: Gravit.io --><svg xmlns="http://www.w3.org/2000/svg" xmlns:xlink="http://www.w3.org/1999/xlink" style="isolation:isolate" viewBox="0 0 24 24" width="24pt" height="24pt"><defs><clipPath id="_clipPath_ZWlwoLXvTDzk9v8rgXS5s8lD0f5OgkQ2"><rect width="24" height="24"/></clipPath></defs><g clip-path="url(#_clipPath_ZWlwoLXvTDzk9v8rgXS5s8lD0f5OgkQ2)"><path d=" M 4.424 8.97 L 5.576 17.03 C 5.81 18.669 7.344 20 9 20 L 15 20 C 16.656 20 18.19 18.669 18.424 17.03 L 19.576 8.97 C 19.81 7.331 18.656 6 17 6 L 7 6 C 5.344 6 4.19 7.331 4.424 8.97 Z " fill="none" stroke-width="1" stroke="rgb(255,255,255)" stroke-linejoin="miter" stroke-linecap="square" stroke-miterlimit="3"/><line x1="18" y1="10" x2="17" y2="17" stroke-width="1" stroke="rgb(255,255,255)" stroke-linejoin="round" stroke-linecap="round" stroke-miterlimit="3"/><path d=" M 12.167 5.833 C 11.777 5.443 12.094 4.492 12.874 3.712 C 13.655 2.931 14.605 2.614 14.995 3.005 C 15.386 3.395 15.069 4.345 14.288 5.126 C 13.508 5.906 12.557 6.223 12.167 5.833 Z " fill="none" stroke-width="1" stroke="rgb(255,255,255)" stroke-linejoin="miter" stroke-linecap="butt" stroke-miterlimit="3"/><line x1="12" y1="3" x2="12" y2="7" stroke-width="1" stroke="rgb(255,255,255)" stroke-linejoin="round" stroke-linecap="round" stroke-miterlimit="3"/></g></svg>
