<?xml version="1.0" encoding="UTF-8" standalone="no"?><!-- Generator: Gravit.io --><svg xmlns="http://www.w3.org/2000/svg" xmlns:xlink="http://www.w3.org/1999/xlink" style="isolation:isolate" viewBox="0 0 24 24" width="24pt" height="24pt"><defs><clipPath id="_clipPath_KOA0XOQSbkiHZ0DHbby5dXeJU38VYDM0"><rect width="24" height="24"/></clipPath></defs><g clip-path="url(#_clipPath_KOA0XOQSbkiHZ0DHbby5dXeJU38VYDM0)"><circle cx="12" cy="10" r="3" fill="none" stroke-width="1" stroke="rgb(255,255,255)" stroke-linejoin="round" stroke-linecap="round" stroke-miterlimit="3"/><circle cx="19" cy="9" r="2" fill="none" stroke-width="1" stroke="rgb(255,255,255)" stroke-linejoin="round" stroke-linecap="round" stroke-miterlimit="3"/><path d=" M 16.172 14.172 C 16.896 13.448 17.896 13 19 13 C 20.104 13 21.104 13.448 21.828 14.172" fill="none" stroke-width="1" stroke="rgb(255,255,255)" stroke-linejoin="round" stroke-linecap="round" stroke-miterlimit="3"/><path d=" M 16.172 14.172 C 16.896 13.448 17.896 13 19 13 C 20.104 13 21.104 13.448 21.828 14.172" fill="none" stroke-width="1" stroke="rgb(255,255,255)" stroke-linejoin="round" stroke-linecap="round" stroke-miterlimit="3"/><path d=" M 2.172 14.172 C 2.896 13.448 3.896 13 5 13 C 6.104 13 7.104 13.448 7.828 14.172" fill="none" stroke-width="1" stroke="rgb(255,255,255)" stroke-linejoin="round" stroke-linecap="round" stroke-miterlimit="3"/><circle cx="5" cy="9" r="2" fill="none" stroke-width="1" stroke="rgb(255,255,255)" stroke-linejoin="round" stroke-linecap="round" stroke-miterlimit="3"/><path d=" M 6.344 17.344 C 7.792 15.896 9.792 15 12 15 C 14.208 15 16.208 15.896 17.656 17.344" fill="none" stroke-width="1" stroke="rgb(255,255,255)" stroke-linejoin="round" stroke-linecap="round" stroke-miterlimit="3"/></g></svg>
