<svg xmlns="http://www.w3.org/2000/svg" viewBox="429.5 327 352 248.5" style="stroke-linejoin:round;stroke-linecap:round;fill:none;"><path d="M515,340c-35.84348,-5.1205 -65.72753,27.76462 -36.5,58c16.05746,16.61117 42.67079,19.39876 64,13c27.30376,-8.19113 43.83688,-40.62083 24,-64c-9.11333,-10.74072 -21.67261,-12.61922 -35,-13c-4.54726,-0.12992 -9.03123,1.14881 -13.5,2c-0.51938,0.09893 -2.02772,0.5 -1.499,0.5M499.5,370.5c-0.16804,0.16804 -0.73664,0.5 -0.499,0.5M542.5,376c0.00033,0 0.00067,0 0.001,0M511,390c-1.26693,1.26693 -0.05035,-1.09723 0,-1.5c0.22972,-1.83772 4.12552,-19.93724 9,-17.5c5.66125,2.83063 8.20976,18.79024 4,23c-1.89157,1.89157 -6.25925,1.06019 -8.5,0.5c-0.98321,-0.2458 -4.01246,-0.5 -2.999,-0.5M466,376c1.01379,0 -1.99037,-0.40822 -3,-0.5c-2.66374,-0.24216 -4.58939,0.03576 -7,1c-6.69454,2.67782 -15.91177,8.38237 -18.5,15.5c-4.91014,13.50288 13.66565,3 18.501,3M579,372c9.50386,0 22.15049,7.23543 19.5,18.5c-2.31216,9.82668 -13.59678,5.71147 -20,5c-1.66473,-0.18497 -3.32995,-0.37153 -5,-0.5c-0.83055,-0.06389 -3.332,0 -2.499,0M502.5,416c0,1.19002 -4.36712,6.07602 -5,7.5c-4.8175,10.83937 -7.42224,28.85925 6.5,33.5c0.79057,0.26352 -1.69155,-0.20211 -2.5,0c-1.33523,0.33381 -2.70361,1.40496 -3.5,2.5c-3.02188,4.15509 -3.69647,7.91499 -2.5,13c2.68461,11.4096 13.52923,12.50974 22.5,15.5c1.62788,0.54263 -2.04851,2.84452 -2.5,4.5c-0.85142,3.12188 -0.75242,6.29806 2,8.5c7.98409,6.38727 15.07333,-4.71467 21.5,-6c1.6096,-0.32192 1.22178,3.05473 2,4.5c2.12264,3.94205 5.11712,6.74775 9.5,8c14.43938,4.12554 16.78289,-7.5 26.5,-7.5c4.09373,0 7.38169,9.67798 13.5,10c6.67237,0.35118 11.96833,-3.46833 16.5,-8c0.73554,-0.73554 0.49806,-1.75048 1.5,-1.5c6.42598,1.60649 7.19003,11.66529 18.5,11c8.25859,-0.4858 14.23897,-7.23897 19.5,-12.5c1.1607,-1.1607 1.15547,3.09245 2,4.5c1.76114,2.93523 5.39528,5.64419 9,5.5c7.95447,-0.31818 27,-7.18988 27,-17.5c0,-0.68718 0.07811,1.45757 0.5,2c1.83293,2.35663 3.53734,3.48452 6,5c4.80755,2.95849 8.91741,3.67478 14.5,2c11.40269,-3.42081 9.5,-13.60362 9.5,-22c0,-2.02759 4.14717,-0.17652 6,-1c3.12497,-1.38888 5.44817,-4.26423 7.5,-7c2.8565,-3.80866 4.93269,-11.36153 3,-16c-0.13805,-0.33133 -1.36584,-3.81708 -3,-3c-1.86786,0.93393 4.61688,-1.10759 5.5,-3c2.05461,-4.40273 3.3527,-10.73852 3,-15.5c-1.0594,-14.3019 -13.8578,-20.3578 -22.5,-29c-0.11785,-0.11785 0.35093,0.07454 0.5,0c2.21417,-1.10708 2.48762,-3.68379 2,-6c-1.27856,-6.07314 -3.3093,-13.12774 -9,-16.5c-4.00582,-2.37382 -9.57117,-4.76529 -14.5,-5c-4.42927,-0.21092 -8.95278,3.5 -12.5,3.5c-1.11134,0 -3.53552,-7.11749 -4,-8c-3.09419,-5.87895 -4.87875,-10.69696 -11.5,-13c-8.31079,-2.89071 -21.30796,1.56401 -23,1c-2.28759,-0.76253 -6.1276,-6.77163 -8,-8.5c-9.76257,-9.0116 -21.6672,-4.8328 -30,3.5c-2.05431,2.05431 -8.90727,-5.18212 -13,-4.5c-2.11263,0.3521 -5.61709,1.34129 -7.5,2.5c-1.11012,0.68315 -4.30248,2.5 -2.999,2.5M497.5,481.5c2.51597,0 -6.30475,-1.09972 -8,-1c-3.41675,0.20099 -16.1472,1.1768 -18,5.5c-1.91257,4.46267 7.31956,29.69478 8.5,33c0.76033,2.12892 4.71913,6 5.001,6M554.5,502.5c-10.13199,2.533 7.51948,31.19264 11.5,36.5c1.71394,2.28525 6.96187,9.5 10.001,9.5M652.5,509c3.9475,3.9475 19.21988,30.65362 22,36c1.14957,2.21071 4.67391,13.5 8.501,13.5M702.5,498c-4.85242,4.85242 9.71962,24.11779 16,26.5c18.24425,6.92023 30.19018,-4 47.501,-4" style="stroke:#ffffff;stroke-width:5;"/></svg>