<svg xmlns="http://www.w3.org/2000/svg" viewBox="470 228.5 461 279.5" style="stroke-linejoin:round;stroke-linecap:round;fill:none;"><path d="M587.5,486c9.63999,0 4.95554,-15.16466 0.5,-18c-3.42904,-2.18211 -10.00907,-3.33031 -14,-2c-1.68028,0.56009 -3.05194,7 -2.499,7M572.5,467.5c-2.94574,0 -3.23035,-3.08428 -5,-4.5c-7.96632,-6.37306 -10.5,3.16848 -10.5,8.5c0,0.60093 -0.69083,-0.98471 -1,-1.5c-0.73584,-1.22639 -2.24599,-3.28342 -3.5,-4c-2.93878,-1.6793 -7.08428,-2.56929 -10.5,-2c-4.16903,0.69484 -6,3.63143 -6,7.5c0,0.33333 0.31623,0.89459 0,1c-1.82512,0.60837 -2.45284,-2.60917 -3,-3c-2.68655,-1.91896 -7.84812,-5.10865 -11.5,-4.5c-3.07266,0.51211 -4.97352,4.55296 -3.5,7.5c0.10541,0.21082 0.7357,0.5 0.5,0.5c-1.84813,0 -5.33172,-6.52404 -12.5,-5.5c-1.55678,0.2224 -2,3.52115 -2,5c0,0.68718 0.5,2.68718 0.5,2c0,-6.06167 -11.69663,-1.0412 -13,2c-1.36414,3.18299 2.29126,9.5 6.001,9.5M584,465.5c-1.69528,1.69528 2.15743,-2.75946 2.5,-5.5c0.18197,-1.45575 -1.39333,-7.5 -0.499,-7.5M586.5,472c4.94295,-4.94295 12.12358,-14.5 20.001,-14.5M693.5,402c-2.06155,0 1.20845,3.95917 1.5,6c0.30731,2.1512 -2.67204,6.5 -0.499,6.5M695,400c3.89064,-3.89064 12.89661,-3.04189 18,-4.5c4.73275,-1.35222 37.29013,-12 39.001,-12M699.5,414c-0.53216,0.53216 4.79328,-1.64508 6,-2c4.49322,-1.32154 6.49129,-2.24564 11,-4.5c5.95126,-2.97563 35.51828,-13 42.001,-13M760.5,395.5c17.37429,-8.68714 22.50774,14.84172 30.5,23.5c15.82111,17.13954 23.10975,29.91896 47.5,37c6.83093,1.98317 13.61182,5.5 20.501,5.5M755,381.5c9.0658,0 20.45148,-5.48664 29,-0.5c15.77731,9.20343 16.10647,26.16562 25,40c13.7991,21.46527 36.31411,22.5 58.501,22.5M865.5,443.5c4.73924,0 13.69768,-4.9942 15.5,-9.5c1.09072,-2.72679 2.63853,-8.46972 3,-11c0.11782,-0.82476 -2.33213,-2 -1.499,-2M866.5,458.5c13.77405,6.88702 22.45006,-17.3101 27,-25.5c2.48427,-4.47168 -1.16313,-9 -0.999,-9M866,460.5c-5.69657,0 2.5,1 2.5,1c0,0 -7.33956,-0.5 -5.499,-0.5M877.5,418.5c-2.52996,0 6.39906,0 7,0c5.56145,0 14.30616,0.69384 18.5,-3.5c12.49367,-12.49367 15.4188,-35.14511 16,-52c0.62676,-18.17614 3.55961,-32.40025 -11,-41.5c-5.61622,-3.51014 -13.92331,-4.5 -20.5,-4.5c-2.79983,0 -4.81641,-0.8291 -7.5,-1.5c-0.98321,-0.2458 -4.01246,0.5 -2.999,0.5M826,244.5c-21.88589,-10.94295 -65.12603,11.71746 -46.5,35c3.83133,4.78916 7.52712,6.99874 13,10c5.7538,3.15531 9.85423,4.73318 16.5,5.5c14.03353,1.61925 27.23931,0.88014 41,-2c12.82831,-2.685 24.2825,-8.74558 30,-21.5c8.48957,-18.93826 -22.1346,-29.48642 -35,-31c-2.17025,-0.25532 -12.78045,-0.81379 -15.5,-0.5c-2.04796,0.2363 -4.02222,0.9183 -6,1.5c-0.86268,0.25373 -3.39822,1 -2.499,1M860.5,294c0,-2.95358 7.90498,0.2681 9,1.5c3.17262,3.5692 4.66876,11.31867 4,16c-0.15559,1.08914 -2,3.31189 -2,4c0,1.45302 5.90238,7.86665 5.5,13.5c-0.29776,4.1686 -1.05793,9.4177 -2,13.5c-0.18196,0.78848 -3.19788,4.70848 -3,5.5c1.13691,4.54766 11.57294,4.47409 12.5,10.5c1.28877,8.377 -2.9423,18.09608 -4,25.5c-0.70912,4.96386 4.40434,8.9783 3.5,13.5c-1.26755,6.33775 -4.7771,9.8514 -9.5,13c-0.60568,0.40379 6.72759,6.67928 6.5,8.5c-0.34253,2.74023 -4.58492,7.66984 -6,10.5c-0.89742,1.79483 -6.50568,4 -4.499,4M796,297.5c-2.23513,0 -5.07398,-3.42602 -8,-0.5c-5.94719,5.94719 -13.44269,21.05731 -6,28.5c0.48591,0.48591 -1.31282,-0.5 -2,-0.5c-1.37437,0 -2.8405,0.26214 -4,1c-4.28045,2.72392 -7.25567,6.78969 -8,12c-0.81059,5.67411 1.28126,10.75001 5.5,14.5c2.91539,2.59146 9.61764,2 6.5,2c-1.20185,0 -2.06982,1.23894 -3,2c-6.33776,5.18544 -1.56369,20.5 4.501,20.5M787.5,423c0,5.22648 -2.67512,14.27073 3,19c1.78827,1.49022 11.43487,2.36974 12,3.5c1.86477,3.72953 -2.75324,7.39741 3,12c4.10717,3.28573 12.28916,0.08885 17,-0.5c4.66125,-0.58266 2.56798,5.36685 7,6c2.2639,0.32341 4.76986,-2 7.001,-2M814,460c-1.83035,1.22023 4.54686,18.32804 5,21.5c0.15475,1.08325 0.24377,14 2.001,14M845,465.5c-1.32772,0 0.88823,2.09019 1,2.5c0.74807,2.74292 0.5,7.48119 0.5,10c0,4.95052 -0.32944,9.55841 0,14.5c0.07761,1.16408 -1.16567,3.5 0.001,3.5M770.5,344.5c-6.24394,3.12197 -13.15972,10.99089 -18.5,18c-2.35657,3.093 -5.44653,6.43583 -8,9.5c-0.6832,0.81984 -1.34481,1.65761 -2,2.5c-1.00769,1.2956 -3.64034,4.5 -1.999,4.5M837,329c-2.23481,0.5587 -1.92655,4.42184 -3,8c-2.96634,9.88779 -6.70467,20.06413 -12,29c-3.71991,6.27735 -10.01222,10.42685 -15.5,15c-2.16854,1.80711 -3.85878,3.71565 -6,5.5c-0.81964,0.68303 -3.56593,2 -2.499,2M817,261.5c-11.99838,0 -18.6624,-12.8376 -31.5,0c-1.55584,1.55584 -5.68857,7.12285 -4.5,9.5c4.8481,9.6962 19.65069,1.5 27.5,1.5c5.12203,0 6.41068,6.02854 9.5,8.5c5.3421,4.27368 14.75978,0.81816 19.5,-2.5c1.96001,-1.372 3.63786,-2.4568 5,-4.5c3.71198,-5.56798 -12.6417,-8.74167 -16,-9c-1.66176,-0.12783 -3.33333,0 -5,0c-1.16633,0 -4.66533,0 -3.499,0M844,269.5c12.55325,0 24.92429,-3.5 37.501,-3.5M846,280c-5.80823,0 12.49816,-3.99982 12.5,-4c7.40733,-0.70546 15.11583,-1.5 22.501,-1.5M777.5,259c1.70825,0 2.85253,1 4.501,1M774.5,268c0,1.04061 2.62272,0.5 3.501,0.5M680.5,399c-2.97887,2.97887 -8.6612,3.00713 -12.5,4.5c-17.76989,6.91051 -38.32205,11.09322 -57.5,8c-4.50972,-0.72737 -17.06717,-4.43663 -18,-10.5c-1.05428,-6.85285 17.04296,-16.48046 22,-18.5c0.0808,-0.03292 10.92948,-4.86631 13,-2.5c2.59919,2.9705 0.63687,9.81676 -0.5,13c-0.80207,2.24579 -1.35084,3.08644 -3,4.5c-0.63414,0.54355 -2.83421,1.5 -1.999,1.5M679.5,412.5c-22.94129,0 -44.99753,10.43012 -68,11.5c-10.80273,0.50245 -11.97205,0.20166 -23,-3c-2.26758,-0.65833 -6.72793,-4.04595 -8,-5c-0.37858,-0.28393 -1.47222,-1 -0.999,-1M673.5,422.5c0,-3.33869 -8.98683,-0.59503 -9.5,-0.5c-10.1608,1.88163 -18.3041,6.36404 -28,10c-3.15987,1.18495 -6.36663,2.24665 -9.5,3.5c-1.8714,0.74856 -7.51456,2.5 -5.499,2.5M687.5,429.5c-13.86782,0 -40.00769,21.98861 -48.5,31.5c-3.0116,3.37299 -10.01407,13.40244 -7,19c4.45635,8.27609 37.07986,1.73524 41.5,-6c2.79371,-4.889 3.47952,-11.00683 -2.5,-13c-1.76777,-0.58926 -3.64801,-0.79422 -5.5,-1c-1.49967,-0.16663 -6.0079,0.5 -4.499,0.5M770.5,271c2.05643,0 1.26542,-2.20576 -0.5,-2.5c-5.97095,-0.99516 -18.2073,4.15839 -19,10.5c-0.89662,7.17295 13.08983,1.5 16.001,1.5M882.5,283c-3.05829,-3.05829 21.55091,5.22455 10,11c-5.49937,2.74968 -14.72207,2.32542 -20.5,1.5c-1.93118,-0.27588 -3.80625,-1.03214 -5.5,-2c-0.84353,-0.48202 -3.47054,-1.5 -2.499,-1.5" style="stroke:#ffffff;stroke-width:5;"/><path d="M493.5,479.5c0,-2.02952 -1.76643,-4.06084 -3,-5.5c-0.76681,-0.89461 -3.67728,-2.5 -2.499,-2.5M500,467.5c-0.59069,-0.59069 -0.91213,-6 0.001,-6M505.5,468c0,-0.61376 0.14127,-4.5 0.501,-4.5M523,465.5c-0.51443,-0.51443 -2.07712,-4 -0.499,-4M527.5,466.5c2.93729,1.46864 1.52249,-3.5 3.501,-3.5M544.5,461.5c0,1.23339 -0.95607,-10.5 0.001,-10.5M558,461.5c0,-0.39781 -0.29289,-3 0.501,-3M564,464c1.47678,-1.47678 0.91251,-5.5 3.001,-5.5M578.5,462c0.38429,-0.38429 2.4535,-4 3.001,-4M492.5,462.5c0,-1.54292 1.24097,3 2.001,3M503,457c1.88934,1.88934 2.22047,2.20474 2.5,5c0.08236,0.82355 -0.82666,2.5 0.001,2.5M519,457c1.23047,1.23047 -0.23915,5 1.501,5M537.5,455.5c0.35725,2.14353 -1.67209,6.5 0.501,6.5M554.5,453c-0.26028,0.26028 -1.16604,5.5 -0.999,5.5M563.5,454.5c0.82329,1.64657 -1.33992,5.5 0.501,5.5M493.5,483c-3.49634,0 -6.94099,-0.5 -10.5,-0.5c-1.333,0 -5.332,0 -3.999,0M490.5,479.5c-2.06778,-1.03389 -4.36603,-0.71962 -6.5,-2c-0.60614,-0.36368 -2.20587,-1.5 -1.499,-1.5M490,464.5c-1.66667,0 2.41479,2.43945 3,4c0.52659,1.40425 -2.28861,4.5 2.001,4.5M509,458c-1.06326,0 0.66046,2.51004 1,5c0.43023,3.155 -2.1832,9.5 1.001,9.5M525,451.5c0,3.90399 0.20776,7.55256 0,11.5c-0.1314,2.49654 -2.499,7.5 0.001,7.5M541,451c0,2.50557 -2.00457,7.5 0.501,7.5M554,453c-0.26874,0.80623 -0.5,1.65016 -0.5,2.5c0,1.21326 -2.21226,3.5 -0.999,3.5M564.5,455c0,1.95067 -3.94967,5.5 -1.999,5.5M578,458.5c-0.84984,1.69967 -2.29666,3.02925 -3.5,4.5c-0.529,0.64655 -2.33438,2 -1.499,2M504,484c0,0.16667 -0.16567,0.5 0.001,0.5M514.5,480.5c-3.54022,0 -6.96512,0.02868 -10.5,0.5c-1.00656,0.13421 -4.01447,0.5 -2.999,0.5M513,482c-4.51396,0 -8.4647,-1.49608 -13,-2c-1.16119,-0.12902 -4.66733,0 -3.499,0M520,480c-3.165,-3.165 -11.20363,-4.5 -6.999,-4.5M524.5,480c-1.69954,-1.69954 -6.40252,-6 -3.999,-6M532,485c-1.69967,-0.84984 -1.72203,-3.61272 -1.5,-5.5c0.11732,-0.99721 0.59806,-12 1.001,-12M540.5,479.5c0,-3.44312 1.05334,-8.4267 1.5,-12c0.1252,-1.00162 -0.50841,-3 0.501,-3M548.5,478.5c-0.44074,0 3.78205,-12.5 4.501,-12.5M554,479.5c2.42926,-4.25121 3.67891,-8.37619 5,-13c0.24618,-0.86164 0.10488,-2.5 1.001,-2.5M563,481.5c3.8011,0 5.04157,-7.5 8.501,-7.5M571.5,478c1.90384,0 3.32852,-2 5.001,-2M576,480.5c3.18478,0 6.00686,-1.5 9.001,-1.5M571,465c2.5003,-0.83343 4.86545,-2.5 7.501,-2.5M583.5,478c5.48277,0 10.45124,-4.5 15.501,-4.5M577,477.5c4.18566,0 7.29498,-4 11.001,-4M554,476c3.05682,0 7.32774,-4.5 10.001,-4.5" style="stroke:#ffffff;stroke-width:1;"/></svg>