<svg xmlns="http://www.w3.org/2000/svg" viewBox="371.5 244.5 392 288" style="stroke-linejoin:round;stroke-linecap:round;fill:none;"><path d="M451,375c-15.93678,-7.96839 -35.73161,19.59592 -38.5,31.5c-4.73488,20.35997 12.53268,33.41738 29.5,39.5c9.40325,3.37098 16.19807,3.03436 26,1c21.75929,-4.51608 61.18785,-30.03963 49,-58c-7.62797,-17.49945 -23.57946,-18.24798 -40.5,-19c-3.16354,-0.1406 -6.3388,0.18595 -9.5,0c-2.17098,-0.1277 -8.67373,-0.5 -6.499,-0.5M434,421c-1.33399,0 0.33499,0 0.501,0M474.5,430.5c0.00033,0 0.00067,0 0.001,0M409.5,411c-10.66273,0 -31.31708,13.57189 -13,15.5c4.27287,0.44978 5.93888,-0.5 9.501,-0.5M520,412.5c8.72922,-2.90974 15.17573,1.97281 12,11.5c-1.10707,3.32122 -4.19052,8.54763 -8,9.5c-2.03131,0.50783 -4.52229,-0.10446 -6.5,-0.5c-0.5165,-0.1033 -2.02573,-0.5 -1.499,-0.5M469.5,447c-7.5239,0 -10.18356,11.77055 -6,17c1.43998,1.79998 3.75631,2.79603 6,3c0.585,0.05318 5.49481,-2.01038 5,-3c-0.08407,-0.16813 -1.71322,-0.93016 -2,-0.5c-2.8594,4.2891 6.36971,13.7899 10,15c1.43476,0.47825 6.51454,0.68568 8,0.5c1.36376,-0.17047 2.70838,-0.53032 4,-1c0.78316,-0.28479 2.58926,-2.08926 2,-1.5c-6.50274,6.50274 6.86813,19.29317 12.5,20.5c5.13175,1.09966 9.72055,-3.72055 13,-7c1.08653,-1.08653 1.91347,-4.58653 3,-3.5c2.05818,2.05818 1.60574,5.79003 3.5,8c5.29122,6.17309 14.91035,5.84947 22,4c7.95952,-2.0764 12.56279,-13.01256 17.5,-14c4.54049,-0.9081 12.23387,13.54182 22.5,10.5c13.34755,-3.95483 19.71695,-16.95636 30.5,-21c2.14004,-0.80251 8.48695,7.24347 10,8c4.11706,2.05853 10.51373,1.38823 14.5,-0.5c7.75326,-3.6726 6.039,-12.69267 9.5,-15c2.46904,-1.64603 4.50865,3.88795 7,5.5c7.32998,4.74293 15.55196,5.15503 23,0.5c6.34702,-3.96689 10.91568,-11.82383 13.5,-18.5c0.01738,-0.0449 1.87826,-12.43913 2,-12.5c5.886,-2.943 14.05457,2.94543 23.5,-6.5c10.8275,-10.8275 11.72179,-26.59776 3,-37.5c-0.9098,-1.13725 6.39605,-5.45681 7,-6.5c3.27785,-5.66174 4.74186,-12.04645 5,-18.5c0.27546,-6.88647 -1.29265,-11.82192 -6,-17c-1.51553,-1.66709 -2.86791,-3.14717 -5,-4c-0.9787,-0.39148 -3.74536,-0.25464 -3,-1c1.48584,-1.48584 7.24513,-1.05723 9.5,-3.5c6.87496,-7.44788 5.43761,-21.7409 0.5,-29.5c-1.06278,-1.67008 -11.5,-7.21943 -11.5,-3c0,3.50243 7.10719,-2.91079 7.5,-3.5c2.96621,-4.44931 3.42392,-10.83831 2,-16c-2.87205,-10.41119 -9.88935,-19.01575 -20.5,-22c-2.90662,-0.81749 -8.08601,-1.5242 -11.5,-0.5c-0.74784,0.22435 -2.79748,3.5 -2,3.5c2.83333,0 -2.07206,-5.42375 -4,-7.5c-3.90079,-4.20085 -11.95198,-11.28582 -18.5,-9.5c-4.09804,1.11765 -9.17249,3.46562 -12,7c-0.70957,0.88696 -3.11059,8.9447 -6,7.5c-16.02348,-8.01174 -19.39787,-16.11021 -40.5,-14c-3.58562,0.35856 -6.8584,2.03471 -9,5c-1.57346,2.17863 -1.50479,7.99808 -4,7c-20.54485,-8.21794 -33.72521,-18.41561 -55,-0.5c-4.33415,3.64981 -2.45171,8.90342 -4.5,13c-1.21335,2.4267 -3.62829,-4.18238 -6,-5.5c-5.62123,-3.1229 -11.14546,-4.22372 -17.5,-4.5c-11.76035,-0.51132 -25.26029,5.39249 -31.5,16c-2.50648,4.26102 -1.42861,5.42846 0,10c0.45833,1.46665 3,5.03659 3,3.5c0,-6.42529 -10.68732,-9.68444 -15.5,-8c-9.62746,3.36961 -19.79347,10.38856 -25,19.5c-2.7538,4.81915 -1.67397,5.46263 0.5,9.5c0.7285,1.35292 2.31282,4.87437 3,3.5c2.22775,-4.45551 -7.78749,-4.54191 -8.5,-4.5c-5.26208,0.30953 -9.67489,3.60539 -12.5,8c-4.18803,6.51471 -3.47307,11.55386 0,18.5c0.98324,1.96647 4.75254,4.95152 6.5,6c0.90388,0.54233 3.74536,1.74536 3,1c-1.16892,-1.16892 -8.20009,-0.10027 -7.5,2c0.83036,2.49108 10.08583,8.5 13.001,8.5M482.5,484.5c-4.46612,0 -14.15821,16.78905 -11,21c2.45069,3.26759 8.36287,3.75501 11.5,6.5c1.86481,1.63171 2.5231,5.5 5.001,5.5M542,499c-3.41916,0 -17.30678,9.15537 -15,13c3.23367,5.38945 15.25829,7.5 21.001,7.5M641,483.5c0,-0.43019 1.5,-2 1.5,-2c0,0 -4.4702,3.47351 -4.5,3.5c-2.74705,2.44182 -8.23129,9.69049 -7,14c0.53941,1.88795 21.82189,6.5 25.001,6.5M698.5,472c0,-3.22873 -6.55983,6.15584 -8,7.5c-4.19023,3.91089 -13.93622,11.44649 -13,18c0.95751,6.7026 25.2333,4.38147 30,6.5c1.58474,0.70433 3.20161,4 5.001,4" style="stroke:#ffffff;stroke-width:5;"/></svg>