<svg xmlns="http://www.w3.org/2000/svg" viewBox="491 289.5 413 248.5" style="stroke-linejoin:round;stroke-linecap:round;fill:none;"><path d="M505,460.5c-7.03244,-1.40649 10.7722,11.78644 11,12c5.22473,4.89819 15.8427,4.78025 22.5,3.5c7.51377,-1.44496 13.63657,-6.93454 19,-12c1.62075,-1.53071 2.34914,-3.15863 3.5,-5c0.51507,-0.82411 0.63077,-2.93461 1.5,-2.5c6.11165,3.05582 9.54405,12.88601 20,15.5c11.36236,2.84059 27.16833,-7.77889 36.5,-14c2.45341,-1.63561 3.20268,-7.43244 6,-6.5c3.91756,1.30585 5.18802,8.36377 8,11c5.11319,4.79362 14.81366,11.94119 22.5,10.5c13.04333,-2.44562 21.06252,-11.42362 32,-17.5c2.03747,-1.13193 8.01352,6.57298 10,7.5c10.438,4.87107 22.38029,5.22394 33.5,3c8.81227,-1.76245 18.66046,-9 27.5,-9c6.09946,0 10.79122,7.42784 21.5,6c6.23257,-0.83101 10.44972,-9 16,-9c5.08662,0 10.2481,10.5 20.5,10.5c7.25055,0 9.38887,-4.19443 15,-7c0.80277,-0.40139 1.67151,0.6548 2.5,1c5.83786,2.43244 10.45956,4.5 17,4.5c7.22006,0 13.14732,-2.62946 20,-4c5.79501,-1.159 14.47634,2.5 21.001,2.5M579,462c-22.35338,0 -28.551,-27.15299 -34.5,-45c-0.6448,-1.9344 -4.57005,-21.42995 -4,-22c0.25471,-0.25471 12.78736,1.97498 13,2c14.28059,1.68007 28.56475,2.45527 43,3c53.23175,2.00875 106.82044,-1.73704 160,-4c16.12876,-0.68633 32.62531,-0.0235 48.5,-3c1.19066,-0.22325 12.5,-2 12.5,-2c0,0 5.49974,3.49923 6,5c2.19312,6.57936 -1.83824,17.37783 -6,22.5c-5.19945,6.39932 -10.76889,12.16617 -15.5,19c-1.1734,1.69491 -2.50884,4.00884 -4,5.5c-0.84964,0.84964 -4.20057,2 -2.999,2M550,418.5c-4.10068,-2.05034 7.45774,-0.01056 7.5,0c6.71978,1.67995 13.63222,2.69203 20.5,3.5c17.99507,2.11707 35.92567,2 54.001,2M567.5,452c13.03867,4.34622 27.09253,0.5 40.501,0.5M803,431.5c3.28023,0 -3.5105,4.62894 -4.5,5c-4.69463,1.76049 -9.63583,2.78396 -14.5,4c-10.25418,2.56355 -21.04949,3.74594 -31.5,5c-3.3261,0.39913 -6.6739,0.60087 -10,1c-0.84544,0.10145 -3.3505,0.5 -2.499,0.5M715.5,343c-0.28382,-0.85147 -1.89753,-2.5 -1,-2.5c1.87455,0 18.04131,10.07733 24.5,11c14.10816,2.01545 26.92632,-1.5 40.501,-1.5M720,343c0.99364,0 6.76256,-7.5411 9,-8.5c3.15405,-1.35173 28.29941,1.1497 30,2c0.61785,0.30893 0.5,0.48274 0.5,1c0,0.75919 2.09328,14 2.501,14M720.5,350.5c4.17715,-4.17715 -9.68568,1.57161 -8.5,7.5c1.66204,8.31018 7.26855,13.81714 16,16c10.85683,2.71421 29.66073,5.03059 38,-4.5c3.36202,-3.84231 1.71338,-8.70127 -1,-12.5c-0.47256,-0.66159 -1.80393,-3.08236 -2.5,-3.5c-0.59074,-0.35444 -2.68791,-0.5 -1.999,-0.5M739,367c0.33356,-0.16678 0.62807,-0.5 1.001,-0.5M756,361c0.00033,0 0.00067,0 0.001,0M717.5,369c-3.82861,-3.82861 -14.00625,4.99375 -12,7c4.05172,4.05172 12.55042,-2 16.501,-2M767.5,356c2.7647,-1.38235 10.5,-3.40222 10.5,2c0,1.86514 -3.98726,5.74363 -5.5,6.5c-0.80433,0.40217 -3.39827,1 -2.499,1M708.5,356.5c1.82774,-1.82774 -5.37969,-3.5 -8.5,-3.5c-5.88837,0 -11,5.5 -11,5.5c0,0 -8.7518,-2.31295 -9.5,-2.5c-4.11152,-1.02788 -8.69095,-3.61589 -13,-2c-1.81785,0.68169 -2.83292,4.08354 -3,4c-5.09614,-2.54807 -12.55863,-7.44137 -18,-2c-2.00513,2.00513 -0.14367,7.64367 -1.5,9c-0.16667,0.16667 -0.39459,-0.28918 -0.5,-0.5c-1.04967,-2.09934 -1.89772,-1.84401 -4.5,-3.5c-3.24708,-2.06632 -6.35753,-3.23185 -10,-0.5c-1.64759,1.23569 -7,5.47282 -7,8c0,0.4409 0.96434,5.53566 3,3.5c1.3494,-1.3494 -5.39588,0.29176 -7,3.5c-1.35151,2.70302 1.45982,6.57477 3,8.5c0.20823,0.26029 1,0.33333 1,0c0,-1.29094 -2.24304,-1.41589 -3,-1.5c-4.21265,-0.46807 -8.41351,4.69728 -9.5,8.5c-1.30667,4.57334 4.98627,7 8.501,7M744.5,378.5c1.09632,-1.09632 3.06246,-0.32031 4.5,-0.5c9.9826,-1.24783 1.5,5.84308 1.5,9.5c0,1.01379 2.00589,-0.69882 3,-0.5c1.55734,0.31147 2.54261,1.37216 2,3c-1.11016,3.33048 -4.10961,4.68619 -7,6c-0.95932,0.43606 -4.05278,1 -2.999,1M763,395c0,-4.31471 6.94269,-6.46179 10,-8.5c14.57929,-9.71952 29.58575,-17.98674 42.5,-30c12.31437,-11.45523 24.3355,-25.05917 33,-39.5c1.77046,-2.95077 7.76061,-15 12.501,-15M852,313.5c0,37.22201 -0.90786,74.27789 0,111.5c0.15849,6.49807 -0.49853,13.01915 0,19.5c0.36194,4.70523 1.9644,13 2.001,13M788,488c5.06379,2.53189 8.53839,7.17946 14,9c8.45619,2.81873 16.14012,-5.39331 21.5,-4.5c1.59476,0.26579 3.45676,3.42129 5,4c3.92287,1.47108 9.42976,-2.5 13.5,-2.5c3.59913,0 6.28766,4.19692 9.5,5c5.89811,1.47453 8.08561,-3.5 13.501,-3.5M588.5,518.5c12.63114,12.63114 22.68602,-1.5 35.5,-1.5c3.32171,0 6.08895,4 10,4c7.61828,0 13.48204,-3.99487 20.5,-6c5.70711,-1.6306 9.47027,3.24865 15,3.5c9.74567,0.44298 19.40308,-2 29.001,-2" style="stroke:#ffffff;stroke-width:5;"/></svg>