<svg xmlns="http://www.w3.org/2000/svg" viewBox="510 6 352 589" style="stroke-linejoin:round;stroke-linecap:round;fill:none;"><path d="M606.5,522.5c7.16729,7.16729 6.43821,25.94385 7.5,35.5c0.5,4.5 -0.04731,9.2449 1.5,13.5c0.37986,1.04463 3.36941,4.89176 3.5,4.5c0.54882,-1.64647 3.03751,-1.20893 4.5,-1c17.35409,2.47916 34.66878,5.46103 52,7.5c2.35603,0.27718 15.8658,3.26841 17.5,0c5.81481,-11.62962 5.08674,-31.7271 7.5,-45c0.24435,-1.34394 5.5,-14.5 5.5,-14.5c0,0 -14.71307,0.54629 -15.5,0.5c-18.48021,-1.08707 -37.06223,-3.57811 -55.5,-4.5c-5.81202,-0.2906 -11.72262,-0.02522 -17.5,0.5c-2.16414,0.19674 -4.36913,0.07383 -6.5,0.5c-1.39604,0.27921 -5.42269,1.5 -3.999,1.5M677,497.5c-13.52579,0 -17.80625,10.55 -5.5,19.5c6.88499,5.00727 19.77202,2.72798 25.5,-3c6.09449,-6.09449 2.46308,-13.62959 -5,-16.5c-3.25046,-1.25018 -4.86042,-1.16913 -8.5,-1.5c-0.03702,-0.00337 -11.74443,0 -3.999,0M673,508.5c0.26373,0.26373 0.62802,0.5 1.001,0.5M690.5,509.5c0.00033,0 0.00067,0 0.001,0M657,507.5c-2.82938,0 -6.54488,6.17307 -3.5,8c3.71144,2.22686 7.26187,1 11.001,1M702,505c0.68899,0 11.39381,-0.34072 9.5,2.5c-1.55726,2.33588 -4.5469,4.77345 -7,6c-1.13529,0.56765 -2.32149,1.0286 -3.5,1.5c-0.78875,0.3155 -3.34851,0.5 -2.499,0.5M625,517.5c-4.19255,0 -8.74793,-8.25207 -5.5,-11.5c0.83072,-0.83072 4,-0.5 4,-0.5c0,0 -3.73119,-3.22401 -1,-5.5c2.03902,-1.69918 7.11546,-0.61546 8,-1.5c2.66801,-2.66801 1.94752,-7.17901 6.5,-9c0.62147,-0.24859 8,-1 8,-1c0,0 0.62252,4.5 2,4.5c1.92603,0 3.38832,-4.29611 5.5,-5c0.15811,-0.0527 0.35093,0.07454 0.5,0c0.59628,-0.29814 1.40372,-0.29814 2,0c4.00535,2.00267 11.24943,-1.70881 14.5,1c1.37409,1.14508 2.80199,4.18805 2.5,6c-0.0003,0.00179 -1.00094,2 -0.999,2M625,401.5c0,3.07119 12.58846,0.55622 14.5,0.5c24.30081,-0.71473 48.78313,2 73.001,2M628,410c-1.1311,-1.1311 -1.36106,-6.5 -1.5,-6.5c-1.21335,0 -0.6163,2.34891 -1,3.5c-2.03021,6.09063 -2.84531,8.19738 -4.5,15c-3.88329,15.96463 -6.71288,31.70424 -9,48c-1.57175,11.19872 -2.63572,22.20734 -3,33.5c-0.12374,3.83599 -4.33699,11.5 -0.499,11.5M713.5,408c-4.41934,2.94623 -1.76564,16.72379 -1.5,20c1.3657,16.84365 2,33.56529 2,50.5c0,11.69407 0.16083,23.32532 -0.5,35c-0.31139,5.50129 -0.7104,10.99752 -1,16.5c-0.04451,0.84572 -0.84589,2.5 0.001,2.5M623.5,401c8.03689,-16.07377 -3.86686,-31.82248 -13,-44c-20.66479,-27.55305 -44.36676,-52.60016 -62,-82.5c-29.43538,-49.91216 -29.25819,-109.13526 -1,-160c23.6995,-42.6591 71.90648,-73.78418 116.5,-90c28.14881,-10.23593 71.57535,-17.15645 100.5,-6.5c85.5954,31.53515 107.8399,152.23057 55.5,220.5c-9.59831,12.51954 -20.00682,24.34242 -29.5,37c-11.60073,15.46764 -20.35934,33.08179 -30.5,49.5c-7.88903,12.77272 -16.16888,24.59502 -22,38.5c-4.48283,10.68982 -6.98617,20.44929 -10,31.5c-1.05119,3.85436 -3.72024,6.6012 -4.5,10.5c-0.27925,1.39623 -2.92288,4 -1.499,4" style="stroke:#ffffff;stroke-width:5;"/></svg>