<svg xmlns="http://www.w3.org/2000/svg" viewBox="420 211 562.5 285" style="stroke-linejoin:round;stroke-linecap:round;fill:none;"><path d="M739,370c-7.26169,-3.63084 -16.53224,-1.58402 -24,0.5c-18.06345,5.04096 -37.49029,11.92172 -48,29c-7.51315,12.20888 -7.94506,29.12626 5.5,38c32.12934,21.20536 71.6454,16.08773 106,4c16.33358,-5.747 31.76304,-14.95946 38.5,-32c8.0052,-20.24846 -16.27747,-33.36513 -31,-38c-5.74513,-1.80865 -11.55374,-3.54093 -17.5,-4.5c-3.65504,-0.58952 -14.70128,-1.5 -10.999,-1.5M685.5,413c-1.01753,0 3.50348,1.77431 4,2c0.53707,0.24412 3.72728,1.7063 5,2c7.11244,1.64133 13.11923,-0.5 20.001,-0.5M751,420c7.19226,7.19226 23.44755,0 31.501,0M663,417.5c-8.89537,-2.96512 -14.76459,-3.9326 -24,1.5c-1.46147,0.85969 -8.71393,6.67164 -4,9.5c5.62868,3.37721 13.70395,2 20.001,2M819.5,425.5c7.68698,0 14.3398,3.82378 19.5,9.5c1.3685,1.50535 4.93856,3.56144 3.5,5c-5.13061,5.13061 -22.63274,3 -29,3c-2.5,0 -5.00635,0.17812 -7.5,0c-1.67039,-0.11931 -6.67365,-0.5 -4.999,-0.5M818,398c21.18709,0 21.48729,-25.86723 16,-40.5c-1.48884,-3.97023 -1.8204,-4.12946 -4.5,-8c-0.81609,-1.17879 -4.51379,-1.48621 -3.5,-2.5c10.89918,-10.89918 31.76151,-30.29355 12.5,-45.5c-8.36199,-6.60157 -21.7945,-8.05137 -32,-5.5c-1.4462,0.36155 -2.50929,2 -4,2c-1.10417,0 -1.29647,-6.28764 -1.5,-7c-0.56141,-1.96493 -3.23811,-8.24833 -4,-9.5c-6.50999,-10.69499 -16.29968,-23.70673 -27.5,-29.5c-15.23901,-7.88225 -17.78055,-2.5 -30.5,-2.5c-1.6743,0 -8.56876,-11.95236 -9.5,-13c-7.91154,-8.90049 -15.98811,-13.05369 -28,-16c-6.52114,-1.59953 -15.15255,-0.58353 -20.5,4c-0.51477,0.44123 -3.49089,4.87997 -4,6c-0.78635,1.72996 0.19967,6.34984 -1.5,5.5c-2.86469,-1.43235 -5.64543,-5.59696 -8.5,-7.5c-9.98602,-6.65735 -22.53849,-10.34176 -34.5,-10c-11.39125,0.32546 -22.95312,3.50923 -32,10.5c-4.09644,3.16543 -6.35155,4.66617 -9,9c-2.92043,4.77888 -2.03466,7.98267 -3,7.5c-7.21211,-3.60605 -11.04184,-10.58338 -19.5,-13c-28.89348,-8.25528 -60.71596,11.20234 -77,34c-3.88045,5.43263 -4.84349,12.61845 -3.5,19c0.56627,2.68978 3.94365,6.05635 2,8c-0.17521,0.17521 -8.1944,-3.39259 -9,-3.5c-3.88286,-0.51771 -8.93115,1.04492 -12,3.5c-10.47583,8.38067 -25.58782,26.07554 -22.5,41c1.01977,4.9289 4.19273,13.29198 10,15c0.72393,0.21292 12,1.74767 12,-0.5c0,-0.2357 -0.2643,-0.5 -0.5,-0.5c-5.55284,0 -15.06943,2.17638 -19,6.5c-8.37251,9.20976 -16.66794,25.18009 -8,37c5.75771,7.85142 14.94517,9.9695 24,7.5c3.16727,-0.8638 6.2303,-2.23746 9,-4c0.70305,-0.4474 2.33333,-2 1.5,-2c-10.12343,0 -0.79602,20.77825 0.5,23c6.94783,11.91056 25.77814,7.14959 35.5,2.5c4.20712,-2.0121 7.21801,-5.2308 11,-7.5c1.01057,-0.60634 0.18991,2.36301 0.5,3.5c0.67001,2.4567 1.46547,4.13535 2.5,6.5c3.23787,7.40085 9.30961,13.54991 17.5,15.5c13.46079,3.20495 17.09479,-2.93246 26.5,-4.5c2.95522,-0.49254 7.08386,5.81754 14.5,3.5c4.97912,-1.55598 10.7509,-11 15,-11c1.21335,0 0.76204,2.31021 1,3.5c0.95762,4.78808 4.44182,8.68606 9.5,7c3.44279,-1.1476 13.3438,-2.50785 16,-4.5c1.81369,-1.36026 1.73389,-5.5 4.001,-5.5M461,400c-13.88067,0 -41.08804,21.91196 -27.5,35.5c5.4081,5.4081 19.5108,7.5 27.001,7.5M497.5,421.5c-4.83198,0 -14.24673,15.64623 -13.5,20.5c1.80703,11.74568 13.76775,14 23.001,14M778,443.5c-0.49851,0.49851 5.28064,0.94575 6.5,1.5c3.35068,1.52304 5.96268,8.98957 4.5,12.5c-2.4727,5.93449 -12.61167,5.93068 -17.5,7c-12.1363,2.65482 -23.89952,6.6287 -36,9.5c-9.95071,2.36118 -19.85711,4.32967 -30,5.5c-4.00456,0.46206 -8.02372,0.83729 -12,1.5c-0.36921,0.06154 -1.37331,0.5 -0.999,0.5M669.5,443.5c-4.67789,-4.67789 -18.16657,8.03354 -15,15c2.37817,5.23196 8.97033,6.03058 13.5,8c2.55691,1.1117 7.80193,5.5 11.001,5.5M852.5,375c0.16667,0 0.33333,0 0.5,0c1.16747,0 17,-2.07809 17,0c0,2.891 -13.18646,14.68135 -5,15.5c1.33737,0.13374 2.65696,-0.5 4.001,-0.5M888.5,353c3.79763,-3.79763 22.81018,-6.29166 22,1c-0.87499,7.87487 -24.72383,16.43834 -8.5,19c1.32727,0.20957 2.65629,0.5 4,0.5c1.80224,0 3.62904,-1 5.501,-1M918.5,327c3.59923,-8.99808 35.7331,-8.54843 41.5,-1.5c4.5534,5.56526 -12.06567,13.98504 -12.5,20.5c-0.56297,8.44455 21.7788,6.5 25.501,6.5" style="stroke:#ffffff;stroke-width:5;"/></svg>