<svg xmlns="http://www.w3.org/2000/svg" viewBox="428 225 361.5 281.5" style="stroke-linejoin:round;stroke-linecap:round;fill:none;"><path d="M672,249.5c-15.26243,-5.08748 -28.34441,-1.30497 -40.5,9.5c-14.58741,12.96659 -15.03181,37.60411 3.5,48c10.57932,5.93474 18.38763,6.82783 30.5,8c13.38492,1.29531 27.08607,0.39855 40,-3.5c11.56654,-3.49179 23.49276,-9.67354 30.5,-20c16.84225,-24.82016 -19.19232,-42.68308 -38.5,-45c-5.79415,-0.6953 -11.77761,-0.64448 -17.5,0.5c-2.5,0.5 -5.01982,0.90948 -7.5,1.5c-1.02706,0.24454 -4.05477,1 -2.999,1M647,285.5c0.00033,0 0.00067,0 0.001,0M720,271.5c0.16671,0.16671 0.26524,0.5 0.501,0.5M612.5,283c3.24648,-3.24648 -3.07717,-3.30118 -5,-2.5c-6.38615,2.6609 -21.11347,10.50623 -18.5,19c3.48087,11.31282 22.60725,2.5 30.001,2.5M751,269c-0.00965,-0.00241 -4.65666,-1.18668 -4.5,-1.5c0.756,-1.51199 8.97176,-2 10.5,-2c6.98954,0 20.77357,0.59913 18,11c-1.91496,7.1811 -13.4756,9.8689 -20,11.5c-3.61551,0.90388 -7.36866,1.162 -11,2c-1.69518,0.3912 -6.73873,1.5 -4.999,1.5M695,313.5c13.66501,-4.555 17.76347,12.04075 15.5,22c-0.55557,2.4445 -2.11719,7.93099 -4,9.5c-0.93212,0.77677 -3.5,2.21335 -3.5,1c0,-1.05409 2.03676,0.57189 3,1c2.14528,0.95346 2.90991,1.37987 4.5,3.5c3.43767,4.58356 5.0988,12.10309 3,17.5c-3.06751,7.88787 -12.27992,7.41988 -16,13c-0.4555,0.68325 4.55477,9.16431 5,10.5c2.11839,6.35518 -0.07653,16.2687 -4,21.5c-3.04865,4.06487 -8.18109,5.32126 -13,5c-2.87074,-0.19138 -6.46557,-3.53443 -8.5,-1.5c-0.17549,0.17549 1.60862,7.63107 1.5,8.5c-0.77343,6.18747 -2.98598,11.56041 -8,15.5c-10.78213,8.47167 -24.79156,-0.74169 -36,1.5c-8.04434,1.60887 -1.74137,19.18104 -14,18.5c-6.69417,-0.3719 -12.34072,-3.49737 -15.5,-9.5c-1.51302,-2.87474 -3.84031,-10 -4,-10c-2.16667,0 -1.63156,4.01499 -2.5,6c-2.41212,5.51342 -6.99964,13 -14,13c-10.76607,0 -10.98257,-17.24128 -16.5,-20c-0.76611,-0.38305 -8.1001,11.56677 -8.5,12c-3.62354,3.9255 -11.34199,6.61188 -16.5,5c-9.17733,-2.86791 -12.15944,-19.05315 -21,-22c-3.48936,-1.16312 -9.34865,6.84577 -12,9c-8.27503,6.72346 -13.0488,12.27072 -23.5,6c-4.6376,-2.78256 -10.66551,-4.39395 -13.5,-9c-2.82276,-4.58699 -8.37543,-15.53072 -4,-21c0.78159,-0.97699 2.48077,1.01923 2,1.5c-4.70251,4.70251 -12.67893,-1.62944 -14.5,-6c-1.7354,-4.16496 -2.62264,-8.09569 -1,-12.5c0.85071,-2.30908 2.13499,-4.45249 3.5,-6.5c0.46225,-0.69338 2.33333,-2 1.5,-2c-5.04684,0 -10.22078,9.55843 -14.5,1c-5.90622,-11.81245 6.48607,-27.97911 12.5,-37c1.14924,-1.72385 -9.50411,-5.96303 -9,-10.5c1.14037,-10.26334 5.42867,-15.95245 13,-21c0.80861,-0.53907 -1.36256,-1.53794 -1.5,-2.5c-0.59172,-4.14206 -4.37826,-7.83919 -4,-12c0.95239,-10.47624 12.45711,-12.9857 20,-15.5c0.70711,-0.2357 -0.66667,-1.33333 -1,-2c-0.61172,-1.22344 -1.32749,-3.94738 -1.5,-5.5c-0.50957,-4.58614 3.78709,-11.71548 7,-14.5c6.17707,-5.35346 11.84386,-0.60409 16.5,2.5c0.19612,0.13074 0.39459,-0.28918 0.5,-0.5c1.48372,-2.96745 1.14004,-5.74507 3,-9c2.97045,-5.19829 10.81539,-13.33558 17.5,-12.5c5.63665,0.70458 7.88437,12.39018 14.5,10.5c8.15102,-2.32886 6.61525,-15.24195 19.5,-19c11.40865,-3.32752 13.76101,12.5 22.5,12.5c3.44461,0 4.08916,-4.39808 6,-6.5c4.02269,-4.42496 9.79223,-9.05659 16,-9.5c5.93414,-0.42387 6.50779,6.0026 11,7.5c5.7922,1.93073 10.28864,-3.84192 15.5,-5c3.84311,-0.85403 3.24484,4 5.001,4M502.5,450.5c-0.79057,-0.79057 -0.70943,-3.79057 -1.5,-3c-0.2357,0.2357 -0.04134,0.66924 0,1c0.88876,7.11007 0.44811,14.32549 1,21.5c0.3326,4.32378 -3.83555,13 0.501,13M525.5,443.5c-0.42423,0 0.02255,8.50388 0,9c-0.21204,4.66483 -0.36664,9.33226 -0.5,14c-0.18564,6.49735 -0.41848,13.01349 0,19.5c0.11792,1.82772 -1.33052,5.5 0.501,5.5M626.5,452c0,7.34044 1.25173,15.05192 1.5,22.5c0.13372,4.01166 -3.01289,12 1.001,12M652,441.5c4.02148,8.04295 2,19.22694 2,28c0,3.16667 0,6.33333 0,9.5c0,1.83433 -1.83333,5.5 0.001,5.5" style="stroke:#ffffff;stroke-width:5;"/><path d="M671.5,279.5c-1.27236,-5.08945 0.15132,8.88761 7.5,9.5c8.66761,0.7223 15.34362,-6.46914 12.5,-15c-1.01475,-3.04424 -13.29671,0.07418 -15,0.5c-2.32878,0.58219 -11.35653,3.5 -6.999,3.5" style="stroke:#ffffff;stroke-width:3;"/></svg>