<svg xmlns="http://www.w3.org/2000/svg" viewBox="467.5 237.5 421 441.5" style="stroke-linejoin:round;stroke-linecap:round;fill:none;"><path d="M673.5,264.5c-37.94667,-25.29778 -125.62771,27.66456 -86.5,74c7.25927,8.5965 19.49272,14.29194 30,17c37.34372,9.62467 109.69745,10.04853 125.5,-35.5c10.51681,-30.31314 -12.33882,-51.0909 -38,-60.5c-10.30775,-3.77951 -17.22655,-5.55111 -28,-6c-3.66727,-0.1528 -7.352,0.09467 -11,0.5c-0.89366,0.0993 -3.39816,1 -2.499,1M610,310c0.00033,0 0.00067,0 0.001,0M634,324.5c6.96241,6.96241 38.18567,2.18362 46,-1c4.7127,-1.91999 13.63312,-8.5 19.001,-8.5M674.5,324.5c-1.22068,0 -0.11433,-0.5427 0,-1c1.15945,-4.6378 0.63498,-15.68166 8,-16.5c5.24958,-0.58329 7.38679,2.56366 9,7c0.74917,2.06022 -1.19121,6.5 1.001,6.5M684,312c0,-2.54958 -1.04858,7.5 1.501,7.5M720.5,306.5c1.0979,0 1.09204,-0.5 2.001,-0.5M578,316c-13.81554,-13.81554 -56.8473,25.37685 -25,27.5c5.74178,0.38279 11.64239,-1 17.001,-1M760,307c0,-3.32989 5.65986,-3.91496 8,-4.5c8.57416,-2.14354 15.5,2.08345 15.5,11.5c0,8.89974 -6.5429,12.32256 -14,13.5c-2.65453,0.41914 -5.36477,0.47295 -8,1c-0.99378,0.19876 -4.01246,0.5 -2.999,0.5M606.5,350.5c-5.51466,0 -12.61984,11.75975 -15,15.5c-8.45245,13.28243 0.08347,18.74959 -2.5,26.5c-1.68006,5.04018 -10,3.7048 -10,15.5c0,3.60225 1.25048,9.19536 3,12.5c1.93504,3.65508 5.56999,6.25999 8,9.5c0.15756,0.21007 -6.13877,7.77754 -6.5,8.5c-4.44549,8.89098 -7.2437,20.61904 -5.5,30.5c1.75215,9.92885 8.33534,11.67067 12,19c1.34371,2.68742 -1.96128,5.68063 -3,8.5c-2.49255,6.7655 -2.23289,11.07334 -0.5,18.5c2.23794,9.59117 11.38421,18.69211 20,23c1.69967,0.84984 4.15629,0.15629 5.5,1.5c0.00387,0.00387 -3.89286,6.22143 -4,6.5c-2.01137,5.22956 -0.82572,9.75104 1,15c3.56278,10.243 11.4985,9.5 20,9.5c0.84984,0 -0.37078,1.66005 -0.5,2.5c-0.47309,3.07507 -0.77863,6.93511 -0.5,10c0.66544,7.31988 4.85159,13.90106 11,18c5.4288,3.6192 12.21453,4.5629 18,1.5c1.8024,-0.95421 5.56885,-2.85328 7,-5c0.13017,-0.19526 0.14365,-1.5 -0.5,-1.5c-5.75266,0 -6.25674,12.48651 -4.5,16c4.36764,8.73527 13.86381,15.74358 24,12.5c8.088,-2.58816 13.2984,-9.7984 19,-15.5c2.01729,-2.01729 5.65268,1.17796 8.5,1c5.41509,-0.33844 10.29724,-2.41348 15,-5c6.42186,-3.53203 11.13147,-9.31035 15,-15.5c1.00715,-1.61144 0.15629,-4.15629 1.5,-5.5c0.90697,-0.90697 8.70009,-0.35005 10,-1c8.91646,-4.45823 16.1832,-15.95418 19.5,-25c1.09538,-2.9874 3.12247,-8.89452 1.5,-12.5c-1.31231,-2.91624 -7.6765,-7.4705 -7.5,-8c3.01761,-9.05282 11.5215,-7.12898 14.5,-25c1.25667,-7.54004 0.36124,-14.78842 -4.5,-21c-0.33378,-0.42649 -10.53857,-6.61501 -10,-8.5c2.88383,-10.09341 14.36591,-8.32845 13,-29.5c-0.39521,-6.12583 -1.93118,-13.78403 -5.5,-19c-2.06461,-3.0175 -10.82786,-7.13932 -11.5,-10.5c-0.88057,-4.40287 3.47724,-12.25038 3,-17.5c-1.07033,-11.77363 -11.10577,-12.42308 -12.5,-18c-1.59822,-6.39286 0.97991,-15.64064 0,-22.5c-0.83172,-5.82204 -2.97637,-13.32546 -9.5,-15.5c-1.65076,-0.55025 -3.28568,-1.20186 -5,-1.5c-2.14258,-0.37262 -8.67374,-0.5 -6.499,-0.5M637,593.5c-7.37078,17.19849 -4.5,37.82098 -4.5,56c0,5.34198 -1.99616,19 1.001,19M742.5,605.5c0,5.3109 7.50663,18.05304 8.5,26c0.84474,6.75788 0.65676,13.78382 2,20.5c0.17556,0.87782 0.10579,2.5 1.001,2.5M605.5,357c23.23617,23.23617 59.41239,25.53213 89.5,14.5c7.3535,-2.69628 13.10592,-5.84268 19,-11c0.33284,-0.29123 3.83717,-3.15133 3.5,-4.5c-0.12873,-0.51493 -1.02977,-1.5 -0.499,-1.5M606.5,361c-7.21835,-7.21835 10.84057,17.10507 11.5,18c1.64547,2.23313 2.84891,4.77102 4.5,7c9.64139,13.01588 21.00161,24.77477 31,37.5c2.61565,3.32901 7.19866,11.5 12.5,11.5c4.77666,0 9.68599,-13.7861 12,-17c10.87593,-15.10546 18.2619,-31.96666 29,-47c0.70308,-0.98431 9.18391,-14.5 11.001,-14.5M597.5,411.5c-5.68516,0 -10.09835,3.82637 -15,6.5c-12.65812,6.90443 -24.46678,14.0707 -38.5,18c-7.945,2.2246 -16.76785,1.91161 -25,1.5c-1.19164,-0.05958 -7.92044,-2.07956 -9,-1c-0.11893,0.11893 -0.16719,0.5 0.001,0.5M501,388.5c-3.35808,3.35808 -2.59425,10.54138 -2.5,14.5c0.33467,14.05635 3.98808,28.12695 8,41.5c1.70891,5.69637 3.66076,11.19664 5,17c0.23705,1.0272 -0.0532,3 1.001,3M483.5,378.5c0,-1.60656 -0.99677,2.44839 -1,2.5c-0.13515,2.16245 0.09411,4.33538 0,6.5c-0.18253,4.1981 -2.97984,22.57719 2,24c5.25781,1.50223 33.92283,-2.76109 36,-6.5c0.92142,-1.65855 2.36665,-23 2.501,-23M741.5,399.5c16.05952,0 36.93221,8.48799 54.5,8c14.04972,-0.39027 28.05433,-6.5 42.001,-6.5M840.5,429.5c6.02135,-12.04271 7.655,-57.20505 9,-72c0.5044,-5.54838 1.5,-10.91985 1.5,-16.5c0,-2.16667 0,-4.33333 0,-6.5c0,-0.5 -0.5,-1.5 0,-1.5c3.26527,0 7.19334,13.54594 7.5,14.5c4.79255,14.91015 11.97648,29.88238 15,45c0.45654,2.28268 -14.37924,-1.71981 -15.5,-2c-1.89223,-0.47306 -7.44947,-2 -5.499,-2" style="stroke:#ffffff;stroke-width:5;"/></svg>