<svg xmlns="http://www.w3.org/2000/svg" viewBox="576 249.5 222.5 303.5" style="stroke-linejoin:round;stroke-linecap:round;fill:none;"><path d="M668.5,253.5c-21.1111,4.22222 -43.62717,13.88505 -41,39.5c0.49971,4.87217 2.64778,13.40459 6.5,17c7.12839,6.65316 16.29756,7.67835 25.5,8.5c23.38397,2.08785 52.06221,-1.66443 68,-20.5c18.31696,-21.64731 -20.21856,-36.43208 -35,-41.5c-3.96972,-1.36105 -8.31215,-1.22982 -12.5,-1.5c-2.49648,-0.16106 -10.00067,0 -7.499,0M650,289.5c0.6665,0.6665 1.10228,0.5 2.001,0.5M713,285.5c-1.20771,0 0.09888,0.5 0.501,0.5M623.5,289c-4.95504,0 -9.93275,-1.06725 -15,4c-3.22937,3.22937 -3.40893,9.13069 2.5,9.5c6.2871,0.39294 12.04077,-4.5 17.501,-4.5M740,285.5c4.42683,-2.21341 17,-4.11062 17,4c0,5.13593 -7.82578,5.43984 -11,6c-1.71326,0.30234 -6.73873,1.5 -4.999,1.5M635,322.5c-10.27789,0 -22.26,22.87 -11,28.5c1.05409,0.52705 -2.61308,-0.27606 -3.5,0.5c-2.50581,2.19258 -4.33423,4.67116 -5,8c-1.20339,6.01696 0.12395,12.65493 4,17.5c0.33971,0.42463 3.64452,4.85548 4.5,4c1.67498,-1.67498 -4.02024,2.65029 -5.5,4.5c-3.56892,4.46115 -6.1505,7.55348 -7,13.5c-1.22571,8.57999 2.74572,22.5 14.001,22.5M712.5,316.5c-1.00761,-1.00761 3.85166,-1.66405 5,-1.5c5.38295,0.76899 8.87786,3.57697 12,8c3.10688,4.40142 4.2337,8.29889 2.5,13.5c-0.72497,2.17491 -2.24423,4.23268 -3,6.5c-0.19003,0.57009 -1.53748,1.23126 -1,1.5c4.84223,2.42112 9.69874,8.89118 10.5,14.5c0.78689,5.50822 -3,7.78781 -3,12c0,5.22583 10,6.42612 10,17c0,4.26106 -1.58682,10.38023 -4,14c-3.74371,5.61557 -13.35444,6 -5.499,6M626.5,421.5c-7.05341,0 -14.13179,15.43605 -19,20c-2.49481,2.33888 -5.16112,4.50519 -7.5,7c-1.21173,1.29251 -2.64752,2.35559 -4,3.5c-0.99351,0.84066 -4.30045,2.5 -2.999,2.5M736,415.5c15.92969,0 20.18928,34 35.001,34M591.5,458.5c-1.74005,0 3.37074,0.88903 5,1.5c4.08228,1.53085 7.99677,3.31443 12,5c13.92547,5.86336 28.24278,11.32637 43.5,12.5c23.16103,1.78162 50.09558,1.39367 72.5,-5.5c14.60661,-4.49434 28.81098,-9.73545 43.5,-14c3.42906,-0.99553 10.60113,-5.5 14.001,-5.5M632.5,422c24.04461,12.0223 52.48387,7.71063 77,0.5c6.56059,-1.92959 16.6128,-7.5 23.501,-7.5M632,441.5c0,0.8974 -1.8964,2.5 -0.999,2.5M662.5,451c0,2.4231 0.5,4.82745 0.5,7.5c0,0.33333 -0.33233,1 0.001,1M712.5,443.5c-1.41943,1.41943 3.41033,8.5 3.501,8.5M653.5,480.5c-1.28238,1.28238 -0.5,6.88832 -0.5,8c0,10.66088 0.89159,21.35279 1.5,32c0.39062,6.83587 0.20341,13.72901 1,20.5c0.21454,1.82361 -1.33518,5.5 0.501,5.5M719.5,478.5c-2.7526,0 3.8919,5.27028 4.5,6c3.15418,3.78502 5.99168,7.17129 0,10.5c-10.26897,5.70498 -22.55285,7.19603 -33,13c-3.76017,2.08898 -6.13023,3.1623 -9.5,6c-1.89663,1.59717 -7.97855,5 -5.499,5M625.5,365c-5.84031,5.84031 -27.81305,-8.20622 -31.5,-14c-10.66434,-16.75826 -5.5544,-42.67798 1.5,-59.5c1.00019,-2.38506 10.5977,-19 11.501,-19M746.5,360c5.57442,1.85814 11.78273,-3.00262 16.5,-5.5c16.1295,-8.53915 24,-23.92996 24,-42c0,-8.30973 -0.89495,-17.73736 -4,-25.5c-0.96886,-2.42216 -2.26319,-4.70307 -3.5,-7c-0.74658,-1.38651 -4.07373,-4 -2.499,-4" style="stroke:#ffffff;stroke-width:5;"/></svg>