<svg xmlns="http://www.w3.org/2000/svg" viewBox="550.5 174 204 435" style="stroke-linejoin:round;stroke-linecap:round;fill:none;"><path d="M569.5,301c2.72322,2.72322 33.18666,2.5 37.5,2.5c31.50295,0 63.77986,-4.29729 95,-8.5c3.90292,-0.52539 18.81255,-5 24.001,-5M603,304c0,0.94015 0.5,-6.49 0.5,-6.5c0,-7.86196 0.60734,-15.64671 1,-23.5c0.71871,-14.37421 2.01146,-28.66618 3,-43c0.26374,-3.82425 0.21264,-7.67257 0,-11.5c-0.15049,-2.7089 -4.21208,-8 -1.499,-8M668,197.5c-16.85107,-6.74043 -29.42952,-5.88069 -47,-1c-4.404,1.22333 -13.88628,4.23887 -11.5,11c2.36647,6.705 10.27066,9.75413 16.5,11c14.37427,2.87485 56.85787,-1.00255 62,-19c3.80498,-13.31742 -22.20881,-12.26803 -29.5,-11c-3.75127,0.6524 -14.30658,4.5 -10.499,4.5M678.5,203c3.93904,0 1.14649,17.15613 1,19.5c-1.15719,18.51506 -5.49485,43.01545 0.5,61c1.21177,3.6353 3.56666,7.09998 4,11c0.14169,1.27517 -0.07453,8 0.501,8M593.5,307.5c-18.86636,18.86636 -7.75548,46.01183 14.5,59.5c15.62572,9.47013 40.22348,7.51524 56.5,1.5c18.31227,-6.76758 40.02256,-21.25183 38,-43.5c-0.9254,-10.17936 -4.59813,-16.71713 -10,-25c-1.29387,-1.98394 -6.86757,-5.5 -4.499,-5.5M615,331.5c-0.16804,0.16804 -0.73664,0.5 -0.499,0.5M655.5,323c-2.20915,2.20915 -5.25788,3.01577 -7,6.5c-9.95753,19.91507 22.82192,21.35616 30.5,6c3.50219,-7.00439 -0.63425,-15.10069 -6.5,-19.5c-2.52517,-1.89388 -6.88859,-3 -10,-3c-1.34537,0 -5.34437,0.5 -3.999,0.5M662.5,330.5c0.33367,0 0.66733,0 1.001,0M632,350c-2.96607,0 -5.94856,3.55607 -9.5,4c-2.16052,0.27006 -8.47827,-0.97827 -8,-0.5c2.49757,2.49757 10.05266,4.18947 13.5,3.5c0.81044,-0.16209 9.32602,-3.17398 8,-4.5c-1.07621,-1.07621 -0.82752,1.00872 -0.5,1.5c1.48138,2.22208 3.72833,3.22283 6.5,3.5c3.91761,0.39176 8.11575,-0.11157 12,-0.5c2.0303,-0.20303 3.99972,-0.66662 6,-1c0.4932,-0.0822 2,0 1.5,0c-6.4152,0 -12.41387,0.01325 -19,-1c-2.88465,-0.44379 -4.08231,-0.1941 -6.5,-1c-0.0026,-0.00087 -1.99953,-1 -1.999,-1M672.5,356.5c0,0.16667 -0.16567,0.5 0.001,0.5M671,372.5c0.26373,0.26373 0.62802,0.5 1.001,0.5M606.5,369c0,4.79768 -15.7412,5.2412 -18.5,8c-0.2254,0.2254 0.80557,1.11114 1,1.5c2.36975,4.7395 14.5,17.96302 14.5,21c0,21.02895 -13.70456,34.87495 -8.5,63.5c2.65743,14.61585 4.96747,29.33583 9.5,43.5c1.86853,5.83917 1.84231,6.11251 3.5,11.5c0.39518,1.28433 -0.84275,4 0.501,4M687.5,360c-0.57818,0 3.51518,3.58966 4.5,4c4.42808,1.84503 16.01651,-0.96698 18.5,4c0.98154,1.96308 -8.14711,8.78159 -9,10c-3.27635,4.68049 -3.1395,14.6395 -6.5,18c-0.34773,0.34773 3.82894,5.48682 5.5,10.5c2.86036,8.58108 6.22674,18.08717 7.5,27c2.57616,18.03314 3.24916,36.4253 1.5,54.5c-0.71735,7.41264 -1.91404,14.26029 -3,21.5c-0.39557,2.63716 0.4384,5.36962 0,8c-0.06124,0.36746 -0.87153,1 -0.499,1M644,392.5c0.167,0 0.334,0 0.501,0M643.5,403.5c0,0.16667 -0.16567,0.5 0.001,0.5M648,375c0,-0.68711 -2.69013,1.79136 -3.5,2.5c-2.76519,2.41954 -5.96919,4.97946 -9,7c-0.70651,0.471 -3.12513,0.62513 -3.5,1c-0.20082,0.20082 0.09426,1.21721 0,1.5c-1.24911,3.74732 1.62972,15.92689 2,20c0.9291,10.22006 5.30872,20.35232 7,30.5c2.47335,14.84008 2.51525,30.11441 4.5,45c1.04548,7.84108 1.17746,18.20984 3,25.5c0.15829,0.63318 -1.09667,12.5 0.501,12.5M609,523c16.63762,0 33.43203,5.3534 50.5,4.5c8.80191,-0.4401 17.78412,-1.10546 26.5,-2.5c6.77294,-1.08367 14.18369,-5 21.001,-5M622.5,529c1.97054,0 1,4.63463 1,6c0,11.59312 1.14793,22.50737 2.5,34c0.39141,3.32701 0.73286,6.66071 1,10c0.02946,0.36831 0.53988,5.5 1.001,5.5M684,531.5c0,-0.7094 2.78237,6.12947 3,7c0.82494,3.29978 1.58026,7.64209 2,11c1.44819,11.58553 1.19608,22.9804 3.5,34.5c1.00103,5.00515 2.19626,11 2.501,11M596.5,411c-3.69581,-3.69581 -26.94052,12.76206 -27,13c-0.77612,3.10448 15.0203,19.08051 17,22.5c1.65576,2.85994 5.11092,13 9.501,13M702,399.5c-1.16987,0 1.91091,0.88218 2.5,1c2.37958,0.47592 4.69783,1.23261 7,2c4.04259,1.34753 22.40161,3.40564 24,9c1.04341,3.65195 -3.50625,10.51562 -4.5,13c-3.51737,8.79342 -8.30133,17.2656 -10.5,26.5c-0.18423,0.77378 -3.05919,13.5 -1.999,13.5" style="stroke:#ffffff;stroke-width:5;"/></svg>