<svg xmlns="http://www.w3.org/2000/svg" viewBox="510 221.5 456 386.5" style="stroke-linejoin:round;stroke-linecap:round;fill:none;"><path d="M677,245c-17.64777,0 -35.8469,9.82846 -47,23.5c-8.69229,10.65507 -15.733,27.586 -3,38.5c31.14344,26.69437 77.0325,22.19648 112,7.5c16.37574,-6.88256 44.66221,-17.86064 48,-39c5.71652,-36.20461 -60.99369,-40.17098 -74.5,-43c-5.55589,-1.16373 -11.57217,-0.66158 -17,1c-7.20683,2.20617 -14.33534,4.66052 -21.5,7c-1.00364,0.32772 -4.05479,1 -2.999,1M647.5,289c0.00033,0 0.00067,0 0.001,0M752,270.5c0.90864,0 0.90262,-0.5 2.001,-0.5M676.5,290.5c5.79391,5.79391 19.33827,1.54976 26,-0.5c1.02769,-0.31621 9,-2.92799 9,-4c0,-0.61641 -2.2319,-1 0.001,-1M623,301.5c-4.72886,0 -9.49159,-0.00631 -13.5,3c-0.46428,0.34821 -4.45137,3.71945 -2.5,4.5c7.28803,2.91521 15.77625,-3 23.001,-3M794,274.5c3.77199,0 22.94848,-0.5808 17.5,8.5c-2.68915,4.48191 -12.36674,3.24167 -16.5,3.5c-1.67172,0.10448 -3.33081,0.3609 -5,0.5c-1.00996,0.08416 -4.01246,0.5 -2.999,0.5M651,329c5.5051,-5.5051 -6.8019,1.02831 -8.5,2.5c-5.71554,4.95347 -8.45079,11.32777 -10.5,18.5c-1.33536,4.67376 -1.21473,9.07055 1,13.5c1.00445,2.00889 8.1643,6.5071 9.5,2.5c1.24003,-3.7201 -9.87966,3.67766 -13,8.5c-5.0027,7.73145 -8.5586,19.36215 -6,28.5c3.42722,12.24008 8.20107,11.5 18.5,11.5c0.16667,0 -0.33831,-0.04042 -0.5,0c-2.05373,0.51343 -4.3214,1.7321 -5.5,3.5c-3.74112,5.61167 -4.67784,9.72159 -4,16.5c0.63046,6.30458 2.83401,14.36721 8,18.5c4.60941,3.68753 9,4.5 9,4.5c0,0 -7.31775,4.55534 -8,5.5c-4.17169,5.77618 -6.5,10.44958 -6.5,17.5c0,16.78392 11.79543,26.5 27,26.5c1.80278,0 -3.41833,1.55778 -4.5,3c-1.38924,1.85233 -2.46452,3.92904 -3.5,6c-2.59663,5.19327 -4.08048,11.35299 -2,17c3.37979,9.17372 12.6405,11.82892 21.5,10.5c1.02714,-0.15407 10.27943,-4.44114 10.5,-4c2.80213,5.60426 1.29267,12.41158 10,13.5c5.33077,0.66635 14.4877,-1.71721 18.5,-5c2.19667,-1.79728 3.74651,-6.18837 6.5,-5.5c3.24509,0.81127 6.10753,6.24501 10.5,7.5c11.85559,3.38731 20.87296,-6.24591 25.5,-15.5c0.80623,-1.61245 1.43475,3.60557 3,4.5c4.48836,2.56478 5.87813,3.53914 11,3c8.89915,-0.93675 14.5,-10.49468 14.5,-19c0,-0.58616 -1.59556,-10.60296 -2.5,-10c-3.87712,2.58475 3.6242,6.2707 5,6.5c6.21754,1.03626 11.50577,-3.78479 14,-9c2.7958,-5.84577 3.77842,-12.1079 2.5,-18.5c-0.61015,-3.05074 -1.6977,-5.97679 -3.5,-8.5c-0.43323,-0.60652 -1.62017,-1.58655 -1,-2c10.82673,-7.21782 9.96272,-18.54574 6,-31c-2.46903,-7.75982 -10.99465,-9.23662 -13.5,-15.5c-0.10012,-0.2503 7.71735,-7.52169 8.5,-8.5c3.93214,-4.91518 6.16562,-10.27289 7.5,-16.5c1.25927,-5.87659 1.29799,-11.16619 -2.5,-16c-1.70362,-2.16825 -4.73835,-4 -7.5,-4c-0.16667,0 -0.5,0.16667 -0.5,0c0,-0.44995 5.30359,-9.21435 5.5,-10c1.6667,-6.66678 2.20638,-14.38087 0,-21c-2.03077,-6.0923 -7.72601,-7.13913 -13.5,-7.5c-1.67172,-0.10448 -4.47033,1.08902 -5,-0.5c-0.58926,-1.76777 2.17617,-3.16496 2.5,-5c0.6629,-3.75643 0.74564,-6.02036 0,-9.5c-1.28879,-6.01434 -8.29762,-12.10979 -13.5,-15c-2.60623,-1.44791 -5.33333,-2.66667 -8,-4c-0.33489,-0.16745 -1.37342,-0.5 -0.999,-0.5M697.5,550c-3.63212,10.89635 -1.81241,25.01605 0.5,36c0.74121,3.52074 -1.09692,10.5 2.501,10.5M741.5,546c-3.11837,12.47347 1.08897,29.25807 1.5,42c0.09732,3.01693 -2.0175,9 1.001,9M648.5,358.5c-11.31366,11.31366 -24.94482,21.18913 -38.5,30c-4.5065,2.92922 -9.08841,5.81707 -14,8c-1.84027,0.8179 -3.69877,1.59938 -5.5,2.5c-0.53904,0.26952 -2.10166,1 -1.499,1M565.5,363c3.53047,0 7.98314,6.328 10,8.5c12.125,13.05769 10.66144,29.94173 13.5,46.5c0.23822,1.38964 4.16836,19 5.501,19M545.5,338c-3.75426,0 -6.5,6.17292 -6.5,9.5c0,6.42676 16.4068,2.5699 18.5,1c2.98895,-2.24171 4.72788,-8.01475 1,-10.5c-2.40849,-1.60566 -5.68657,-1.96891 -8.5,-1.5c-1.04139,0.17357 -4.05476,1 -2.999,1M561.5,354.5c0,6.33321 6.11302,20.13219 -2,25c-6.42245,3.85347 -8.33963,-10.83963 -10.5,-13c-0.45943,-0.45943 0,-1.5 0,-1.5c0,0 -1.49798,1.49394 -1.5,1.5c-1.43219,4.29658 -8.24983,12.30007 -14,10c-5.11636,-2.04654 -6.9823,-10.63895 -5,-15c0.17663,-0.3886 4.1632,-6.8368 5.5,-5.5c1.58254,1.58254 -6.9539,0.32766 -7.5,0c-3.05751,-1.83451 -5.93477,-8.02182 -5.5,-11.5c1.00007,-8.00054 13.5,-10.44441 13.5,-5c0,1.06719 -1.40803,-1.61205 -2,-2.5c-0.95293,-1.4294 -1.1826,-3.85664 -1,-5.5c0.60304,-5.42733 7.00559,-12.30336 11.5,-15c6.02629,-3.61578 5.53099,12.5 8.5,12.5c0.52705,0 0.12732,-1.12732 0.5,-1.5c2.96752,-2.96752 6.49979,-11 11.5,-11c8.129,0 2,15.20482 2,18.5c0,0.68718 1.41074,-0.14645 2,-0.5c1.4774,-0.88644 2.64135,-1.23448 4.5,-1.5c5.04772,-0.7211 7.66192,1.53973 9,6c1.97575,6.58584 2.01104,12.88398 -5,16c-2.17469,0.96653 -4.76133,2.24622 -7,1.5c-1.13991,-0.37997 -4.20057,-2 -2.999,-2M576,388c-3.2731,-3.2731 -9.68351,1.26678 -12.5,3c-6.31731,3.88758 -22.47754,17.04492 -18,26c1.06406,2.12812 8.76216,-0.66991 10,-1c7.20716,-1.92191 12.74783,-3.46686 18.5,-8.5c2.00569,-1.75498 7.73945,-11.5 10.501,-11.5M784,354c13.87049,0 27.99032,12.49862 42,14.5c10.53613,1.50516 22.35808,1.51352 33,0.5c3.23302,-0.30791 8.95888,-2.5 11.501,-2.5M865,416c-2.49077,0 -0.555,-10.65624 -0.5,-11c1.25978,-7.87365 3.34429,-15.57511 4.5,-23.5c2.42208,-16.60857 4.53458,-34.11416 16.5,-47c1.20344,-1.29601 7.91549,-10.5 11.501,-10.5M917.5,303.5c-4.17934,0 -4.73264,7.63368 -1,9.5c4.66363,2.33181 9.91372,1.29314 14.5,-1c2.84521,-1.4226 1.24992,-6.75008 -0.5,-8.5c-0.98729,-0.98729 -3.2067,-1.0689 -4.5,-1.5c-0.50161,-0.1672 -2.02775,-0.5 -1.499,-0.5M913,303.5c-14.17274,0 -17.81387,7.96352 -18.5,21c-0.14391,2.73428 8.76264,2.27497 10,2c6.25581,-1.39018 17.62762,-14.12762 14.5,-11c-5.71284,5.71284 -1.31118,29.83966 8,32.5c8.12676,2.32193 10.5,-19.40985 10.5,-24c0,-1.43043 -1.70666,-7.89667 0.5,-9c1.16094,-0.58047 5.45286,6.73416 7,8c2.44101,1.99719 11.27273,5.6818 13,0.5c2.22018,-6.66055 -1.25975,-17.37988 -7.5,-20.5c-3.37464,-1.68732 -7.52811,-3.05338 -11,-4.5c-0.62861,-0.26192 -3.73356,2.26644 -3,3c1.26515,1.26515 5.19639,-3.62498 6,-4c8.23289,-3.84202 19.52428,-9.69536 14.5,-21c-6.4943,-14.61217 -21.17215,4.04921 -25.5,10c-1.2448,1.71159 -4.31394,9.68606 -4,10c1.75979,1.75979 -1.26711,-6.53422 -2,-8c-1.33002,-2.66005 -14.43125,-12.42062 -17.5,-11.5c-14.32855,4.29856 -4.24524,14.6616 0.5,20c0.86628,0.97457 3.69085,4.3817 4.5,6c0.22259,0.44518 -0.66833,2 0.001,2M873,354c4.10915,-4.10915 10.19597,13.24496 12,15.5c4.84015,6.05018 20.69495,17.5 28,17.5c1.64148,0 0.53182,-3.76591 2,-4.5c4.32237,-2.16119 -10.54384,-24.57991 -14,-26.5c-3.63282,-2.01823 -7.41633,-4.09252 -11.5,-5c-1.34164,-0.29814 -2.66667,-0.66667 -4,-1c-0.82415,-0.20604 -3.34851,-0.5 -2.499,-0.5" style="stroke:#ffffff;stroke-width:5;"/><path d="M865,415.5c0,7.76612 1.5,16.00735 1.5,24c0,5.87917 -0.52108,11 -0.499,11" style="stroke:#ffffff;stroke-width:3;"/><path d="M576,392c0,-1.61956 -0.58766,-1.05926 -2,0c-6.3261,4.74457 -11.07378,9.93696 -16,16c-1.4295,1.75938 -2.52471,3.77883 -4,5.5c-0.54362,0.63422 -2.83432,1.5 -1.999,1.5M578,394.5c-5.36872,5.36872 -11.00755,9.74551 -16,16.5c-1.62479,2.19824 -3.27625,4.37846 -5,6.5c-0.44719,0.55038 -2.20815,1.5 -1.499,1.5M574.5,390.5c-5.3285,0 -7.78352,4.87194 -12.5,8.5c-2.24965,1.7305 -4.40779,3.58214 -6.5,5.5c-0.78808,0.72241 -3.56809,2 -2.499,2M592.5,439.5c-17.61245,0 -11.9445,19.41676 -17,27c-2.55951,3.83926 -5.37702,8.11677 -8.5,11.5c-1.20155,1.30168 -5.27047,4 -3.499,4M595.5,443c3.38341,-1.69171 -2.88753,-1.89277 -6,7c-4.16213,11.8918 -1.71324,21.87499 -1,34c0.17617,2.99482 0,6 0,9c0,1.33333 -1.33233,4 0.001,4M595.5,442.5c-3.75837,-1.87919 -4.08724,-0.10959 -2,6.5c2.81194,8.90449 12.4362,13.7885 16,22.5c2.0961,5.1238 2.5,10.07164 2.5,15.5c0,2.33433 -2.33333,7 0.001,7M601.5,438.5c-0.79249,0 3.6197,0.00704 5,0.5c3.27298,1.16892 4.90633,1.54032 6.5,4.5c2.99319,5.55878 3.13943,13.04617 5,19c0.62885,2.01232 -0.10729,6 2.001,6M602,436c-1.90029,0 1.96316,-3.3823 3.5,-4.5c4.30988,-3.13446 6.82964,-4.29794 12,-2c5.19515,2.30896 6.53282,8.22257 8.5,13c0.82501,2.00359 0.33421,6 2.501,6M570.5,475.5c-0.37001,-0.37001 6.0015,0.62837 7.5,4c0.87407,1.96665 0.5,4.41974 0.5,6.5c0,0.84977 -1.34877,2.5 -0.499,2.5M578,463c-1.38784,-1.38784 -13.80587,1.7294 -15.5,3c-1.88543,1.41407 -7.35579,5 -4.999,5M587.5,478c0,6.31689 -0.05087,9.8186 3.5,15.5c0.97569,1.5611 -1.33992,5.5 0.501,5.5M594.5,466.5c-6.30445,0 2.03282,9.19692 3,15c0.58237,3.49422 0.21963,6.48597 0,10c-0.12592,2.01466 -2.51759,6 -0.499,6M605,467c-2.13815,6.41444 0.4783,14.9349 2.5,21c0.43376,1.30128 1.88367,5.96532 1.5,7.5c-0.23657,0.94627 -2.47439,2.5 -1.499,2.5M583,456.5c-0.57416,0 -1.61756,-1 -1.5,-1c3.65225,0 5.81132,9.73579 6,12c0.10681,1.2817 -0.08512,14 0.001,14M579,466.5c1.88164,5.64492 5.41247,8.82494 8,14c0.54267,1.08534 -0.21244,3.5 1.001,3.5M598,458.5c-2.43499,0 -3.21522,5.29134 -3.5,7c-0.6028,3.61678 -0.94476,7.45714 0,11c0.9647,3.61764 5.39753,4.25654 7,6.5c1.8187,2.54618 1.26318,7.97363 0,10.5c-0.53859,1.07718 -3.20332,3 -1.999,3M615,457c-3.0545,0 -7.94018,6.44441 -7,9.5c1.44274,4.68891 3.28499,4.04665 5.5,7c1.118,1.49066 -2.86233,5.5 -0.999,5.5M610.5,481c3.19684,3.19684 5,9.13175 5,14c0,1.58103 -3.08003,4.5 -1.499,4.5M587,489c-2.15716,1.43811 -4.60159,3.29143 -6.5,5c-0.96755,0.8708 -1.52709,2.13519 -2.5,3c-0.55847,0.49641 -2.7462,1 -1.999,1M613,460c3.00725,0 7.37819,-3.19818 11,-3.5c2.05256,-0.17105 4.20279,1.5 5.001,1.5M610.5,439c-7.33499,0 -14.13924,24 -3.999,24M623,439c0,6.23905 -1.5,12.18858 -1.5,18.5c0,0.15582 -0.15833,3 0.501,3M619.5,464c-1.34225,0 -1,2.11516 -1,3c0,5.31058 3.44337,8.44337 7,12c1.11811,1.11811 -0.08024,4.5 1.501,4.5M866.5,453c-1.47667,1.47667 -2.54698,3.4614 -3,5.5c-0.12213,0.54958 -1.04693,9.5 -0.999,9.5M863.5,452.5c-2.97912,-2.97912 -6.18837,1.57364 -8.5,3.5c-1.08625,0.90521 -4.41298,3 -2.999,3M869.5,444c3.12692,0 7.35755,-3.50836 11,1.5c0.6493,0.89279 1.16771,12 2.501,12M864.5,441c-2.82132,0 -6.41666,1.64814 -8.5,3.5c-1.62404,1.44359 -5.67189,5.5 -3.499,5.5M867,454c-0.74382,0 1.33624,-1.21544 2.5,1.5c0.62288,1.45339 -0.08024,4.5 1.501,4.5M858,454c0.79264,0.79264 1.86784,7 3.001,7M884,450.5c2.38341,0 -7.24941,4 -6.999,4M871,429c3.93523,-7.87046 -0.21132,5 2.501,5M866,425c-2.60438,0 -10.03006,10.39643 -11.5,12c-1.15939,1.26479 -4.21478,4.5 -2.499,4.5M867.5,431.5c2.19622,2.19622 3.16725,6.50527 3.5,9.5c0.07307,0.65761 -0.66066,2 0.001,2M865,417.5c-3.84758,0 -8.37942,10.56913 -10,13c-1.49062,2.23593 -6.68625,7 -3.999,7M867.5,421.5c-0.16833,0 -0.66733,0 -0.499,0M862,419c-3.49391,-1.74695 -9.18408,-1.76366 -10,1.5c-0.4519,1.80761 -4.36224,5 -2.499,5M854,437.5c-3.77802,0 -10.56815,4.19579 -13.5,6c-1.81637,1.11777 -2.6992,1.9243 -4.5,3.5c-0.35618,0.31166 -1.47229,1 -0.999,1M871,422c-1.01379,0 2.00589,-0.30118 3,-0.5c2.57102,-0.5142 5.80916,-0.94741 8,1c2.43286,2.16254 4.7157,5.36281 5.5,8.5c0.61836,2.47345 -1.04858,7.5 1.501,7.5M864.5,413c-7.53261,0 -14.35911,2.09851 -18.5,9c-1.07785,1.79642 -3.41919,6.67676 -4,9c-0.16257,0.65027 -0.66929,2 0.001,2M865.5,407.5c2.73822,0 12.16211,7.96586 12.5,10.5c0.37446,2.80848 -2.83233,8.5 0.001,8.5M865,400.5c-6.36041,0 -13.9637,10.40282 -17.5,15c-0.52583,0.68357 -4.82997,9 -4.499,9M870,400c8.1082,0 14.96453,14.40067 17.5,21.5c0.91255,2.55513 -1.2122,8 1.501,8M886.5,425.5c1.29537,2.59075 -1.39735,5.2947 -2.5,7.5c-0.56759,1.13518 -2.76816,3.5 -1.499,3.5M880,411.5c-1.20157,0 -4.20057,2 -2.999,2M883.5,403c0,1.31092 3.25175,-2 4.001,-2M888,421c0.50033,0 1.00067,0 1.501,0M849,415.5c-1.715,0 -3.34318,0.58579 -5,1c-0.6683,0.16708 -2.68787,0.5 -1.999,0.5M853,409.5c-2.06523,0 -3.08828,0.68069 -5,1.5c-1.02922,0.44109 -4.11876,1.5 -2.999,1.5M881,351c1.4195,0 -0.31023,0.87954 0,1.5c0.14907,0.29814 0.68377,-0.10541 1,0c6.16316,2.05439 15.03024,11.03024 20,16c2.49773,2.49773 4.94236,11 7.001,11M887,355.5c1.68423,0 -0.54193,6.5 1.001,6.5M894,361.5c0.69423,0.69423 0.01007,13 1.001,13M902,367.5c0,4.49922 -0.39177,9.79875 0,14.5c0.08361,1.0033 -0.50578,3 0.501,3M902,368c1.00855,0 7.54814,3 11.501,3M897.5,361.5c0.61464,0.30732 2,0.5 2,0.5c0,0 5.63282,4 7.501,4M890,357c3.02633,0 3.93741,-2 7.001,-2" style="stroke:#ffffff;stroke-width:1;"/></svg>