<svg xmlns="http://www.w3.org/2000/svg" viewBox="524.5 242.5 303 344.5" style="stroke-linejoin:round;stroke-linecap:round;fill:none;"><path d="M666,250c-33.41514,6.68303 -76.9468,26.72594 -61,68c1.47744,3.82397 2.63128,8.07152 5.5,11c5.34211,5.45341 11.63424,10.16248 18.5,13.5c33.99511,16.5254 105.50718,-5.62679 111,-48c2.75137,-21.22485 -26.47784,-40.1787 -43.5,-44c-7.21256,-1.61915 -9.79998,-1.5 -15.5,-1.5c-4.50167,0 -18.00067,0 -13.499,0M630.5,302c0.00033,0 0.00067,0 0.001,0M708,288.5c0.00033,0 0.00067,0 0.001,0M657,305c5.69092,0 10.19815,2.55488 16,1.5c3.80001,-0.69091 6.27181,-4.5 10.001,-4.5M600,307.5c0,-7.51057 -16.93719,0.12397 -19,7c-2.24435,7.48116 20.88441,1 22.001,1M737.5,289c0,-5.20941 27.36324,-6.59407 28,-1.5c0.73657,5.89255 -12.91923,13.59053 -17.5,15c-2.43322,0.74868 -4.57299,1.80657 -7,2.5c-0.8627,0.24648 -3.39622,1 -2.499,1M613,333.5c-11.81389,0 -8.00893,25.5523 -5,32c0.68538,1.46867 5,3.38512 5,1.5c0,-0.66667 -1.37578,-0.23408 -2,0c-2.65752,0.99657 -4.56342,3.4251 -6.5,5.5c-0.96494,1.03387 -2.23173,1.81267 -3,3c-5.41016,8.36115 -7.37188,21.70966 -2,30.5c0.85272,1.39535 5.05389,4.83256 6.5,5.5c1.52081,0.70191 5.92911,-1.89367 5,-0.5c-5.6882,8.5323 -11.29383,15.11852 -7.5,26.5c1.52596,4.57787 3.7068,6.47289 8.5,7.5c0.81484,0.17461 1.6708,0.08292 2.5,0c1.57329,-0.15733 5.91421,-0.79289 4.5,-1.5c-4.05442,-2.02721 -6.72171,4.66513 -7.5,7c-2.68287,8.04862 -1.35046,17.62083 4,24.5c4.08032,5.24613 10.60054,7.82842 17,6c1.01785,-0.29081 8.79929,-4.93429 9.5,-4c3.02154,4.02871 -0.1869,11.75145 2,17c2.76793,6.64302 12.74268,10.1061 19,11c2.52498,0.36071 9.04765,-3.72617 10.5,-3c1.25427,0.62713 4.67894,11.5 13,11.5c8.29476,0 7.35255,-5.42627 12.5,-8c0.90778,-0.45389 12.14074,1.97654 15,1.5c4.03257,-0.67209 8.77127,-3.03097 12,-5.5c2.54319,-1.94479 2.79844,-7.5 6,-7.5c3.3375,0 7.01485,1.99257 10,0.5c4.1515,-2.07575 11.18577,-9.97231 11.5,-15c0.19318,-3.09083 -0.02802,-4.52802 -2,-6.5c-0.8508,-0.8508 -3.84074,-1.1363 -3.5,-1c9.54277,3.81711 19.39842,-9.24605 22.5,-17c0.83377,-2.08443 1.55908,-7.61707 0.5,-10c-1.30601,-2.93853 -3.16625,-4.33304 -5.5,-6c-0.7672,-0.548 -2.66667,-1.33333 -2,-2c5.55171,-5.55171 10.5729,-13.61123 9,-22c-1.536,-8.19199 -6.34302,-10.92151 -12.5,-14c-2,-1 2.04789,-3.97676 3,-6c2.52958,-5.37536 3.85261,-10.00558 3.5,-16c-0.34373,-5.84343 -1.50023,-10.22759 -5,-15c-0.0685,-0.09341 -7.57306,-6.78082 -7.5,-7c1.62564,-4.87692 4.44686,-7.65943 2.5,-13.5c-2.00408,-6.01225 -12.30015,-8.00073 -12.5,-9c-0.72373,-3.61866 0.24941,-6.61164 -3,-9.5c-3.23941,-2.87948 -11.68702,-2 -10.499,-2M652.5,498c-5.53173,2.76586 -3.07737,11.98119 -4.5,18c-1.31022,5.54325 -8.44868,29.82037 -9.5,33.5c-2.10593,7.37075 -7.75368,29.5 -6.499,29.5M746.5,485.5c12.39007,6.19504 19.79618,41.14558 23.5,54c1.43273,4.97243 2.44173,10.06547 4,15c1.44527,4.5767 0.20152,13.5 5.001,13.5M605.5,375.5c-14.09966,0 -29.29672,-8.98555 -42,-14c-8.2687,-3.26396 -10.71456,-3.66972 -19,-6c-2.33607,-0.65702 -4.67564,-1.30269 -7,-2c-1.01126,-0.30338 -4.05479,-1 -2.999,-1M764,370c14.83083,-14.83083 28.3685,-31.09658 42,-47c3.60571,-4.20666 6.4605,-11.5 12.001,-11.5" style="stroke:#ffffff;stroke-width:5;"/></svg>