<svg xmlns="http://www.w3.org/2000/svg" viewBox="455.5 190 463 440.5" style="stroke-linejoin:round;stroke-linecap:round;fill:none;"><path d="M558.5,348c-21.61834,-3.60306 -44.52142,5.35576 -58,23.5c-3.59861,4.84428 -7.38189,17.285 -3.5,23c4.77509,7.02999 10.60433,13.40379 17,19c4.98786,4.36438 18.75867,8.03857 24.5,9.5c20.84048,5.30485 51.55668,7.89893 70.5,-5.5c26.42745,-18.69259 15.30555,-47.55233 -8.5,-62.5c-8.87978,-5.57568 -20.93573,-8.773 -31.5,-8c-3.88216,0.28406 -15.39154,2 -11.499,2M520,387c0.167,0 0.334,0 0.501,0M589.5,391c0.00033,0 0.00067,0 0.001,0M490.5,380c-4.82106,-4.82106 -14.64715,2.69068 -13.5,9c1.41847,7.80158 16.34736,6.5 22.001,6.5M626,394c6.30819,-3.15409 20.67311,-5.23111 19.5,6.5c-0.41242,4.12417 -8.29545,5.84091 -11,7c-1.26295,0.54126 -5.37305,-1 -3.999,-1M545.5,393.5c0,2.24488 17.49914,1.5 19.501,1.5M547,425.5c-3.83012,3.83012 -8.68735,11.37234 -9,17c-0.15892,2.86054 0.60463,5.81388 1.5,8.5c0.57009,1.71026 4.27475,3.22525 3,4.5c-5.93893,5.93893 -6.30126,14.69796 -1.5,22.5c1.97555,3.21027 5.22242,5.5278 9,6c2.14994,0.26874 6.5,-2.16667 6.5,0c0,8.90802 -7.76087,12.98696 1,23.5c2.31299,2.77559 5.63889,6.09954 9,7.5c1.06409,0.44337 6.98934,-0.01066 7.5,0.5c1.45774,1.45774 -1.68664,3.94691 -1.5,6c0.49216,5.41379 6.44088,13.05419 11.5,15c3.97776,1.52991 11.08826,-2.70587 13.5,-1.5c3.03175,1.51588 1.12607,9.46956 4.5,12c5.98929,4.49196 10.11323,-1.41132 16,-2c4.08432,-0.40843 7.16565,5.21194 11.5,6c5.2569,0.9558 8.73529,-4.5 12.5,-4.5c1.71594,0 1.47044,3.12725 2.5,4.5c2.16297,2.88396 7.35592,3.8428 10.5,4c7.69602,0.3848 13.75793,-8.5 20.5,-8.5c0.7244,0 11.39769,11.93372 17,11c4.95062,-0.8251 7.70623,-7.28437 12,-8c6.63442,-1.10574 9.20145,7.95024 15.5,9c10.35274,1.72546 12.16191,-6.33096 19.5,-10c1.07645,-0.53822 18.25363,10 23,10c7.90302,0 13.16431,-4.66431 18.5,-10c0.94965,-0.94965 4.06892,-6 6.5,-6c4.69313,0 8.98807,2.35544 13.5,3c9.66406,1.38058 22.14786,-1.51279 31,-5c6.92057,-2.72628 13.19492,-15.33898 16.5,-16c15.87741,-3.17548 28.56708,1.36585 37.5,-16.5c2.12614,-4.25229 1.30069,-7.05596 -1,-11c-1.01472,-1.73951 -1.59938,-7.30123 -2.5,-5.5c-0.39839,0.79678 0.44086,2.26478 1.5,2c2.18829,-0.54707 5.69915,-5.13135 6.5,-7c2.54698,-5.94295 -0.07942,-18.65883 -3,-24.5c-2.09581,-4.19163 -4.62004,-5.19476 -9,-7.5c-1.5398,-0.81042 -5,0.24005 -5,-1.5c0,-9.87466 4.47868,-19.54974 0,-30c-2.16535,-5.05249 -7.15949,-9.22211 -12,-11.5c-2.26707,-1.06686 -6.37948,1.74103 -7.5,-0.5c-6.04077,-12.08153 -5.01223,-24.88391 -21,-30c-9.96523,-3.18887 -13.44094,2.92651 -16,2.5c-9.18468,-1.53078 -11.81736,-16.37862 -22,-18.5c-3.54664,-0.73888 -10.95948,-0.2641 -14,2.5c-1.38842,1.2622 -2.96108,6.30239 -6,5c-7.99362,-3.42584 -10.38569,-12.43618 -20,-15c-19.3995,-5.1732 -20.26167,7.91063 -32.5,12.5c-3.04443,1.14166 -8.39781,-8.13976 -10.5,-9.5c-6.0556,-3.91833 -13.01147,-4.66475 -20,-3.5c-17.16272,2.86045 -10.9116,20.99171 -27,9.5c-9.80732,-7.00523 -16.64509,-3.81455 -27,0.5c-2.20274,0.91781 -4.39444,1.87703 -6.5,3c-2.902,1.54773 -11.78793,5 -8.499,5M604,540c-3.03475,5.05792 2.7775,31.93104 3.5,38c0.05879,0.49386 1.66127,17 2.501,17M624,550.5c0,11.95869 2.41447,25.70395 3,38c0.31815,6.68109 0.71953,15 2.001,15M799.5,559c0,10.19636 6.09049,25.47951 7,37c0.02274,0.28801 -0.17442,19 2.001,19M838,547.5c-1.34681,13.46812 6.36383,26.36599 7.5,40c0.54164,6.49968 0.5,11.49554 0.5,17.5c0,2.16667 -2.16567,6.5 0.001,6.5M819,213c-23.93958,9.57583 -34.17121,33.18927 -10.5,52.5c17.93479,14.63101 50.20253,13.63902 67,-2c17.05996,-15.88341 9.32487,-34.56227 -10,-44c-6.93213,-3.38546 -15.8521,-5.8808 -23.5,-7c-2.97296,-0.43507 -5.99694,-0.40313 -9,-0.5c-2.49837,-0.08059 -9.99867,0 -7.499,0M810.5,245c0.00033,0 0.00067,0 0.001,0M865.5,245c0.16645,-0.33289 0.12881,-1 0.501,-1M827,248c3.42261,3.42261 13.5913,0.5 18.001,0.5M788.5,245c-4.05205,0 -21.40425,4.41091 -10.5,8.5c4.71101,1.76663 10.63897,-0.5 15.501,-0.5M888.5,245c3.20647,0 21.1921,-1.28157 18.5,5c-1.25443,2.92701 -9.35298,5.88239 -12,8c-1.23442,0.98753 -6.07982,1.5 -4.499,1.5M796,230.5c-8.0208,-8.0208 -15.86771,-12.60551 -27.5,-8.5c-2.52881,0.89252 -4.29999,6.175 -7,5.5c-4.02165,-1.00541 -12.46872,-13.85937 -24,-14.5c-8.30756,-0.46153 -9.9035,10.8807 -15.5,12c-2.53023,0.50605 -10.7613,-9.42581 -18,-9c-4.16867,0.24522 -9.7126,2.90552 -12,6.5c-0.20337,0.31958 -1.8661,6.5 -2.5,6.5c-6.59133,0 -15.9312,-9.5258 -28,-5c-5.39611,2.02354 -10.59864,5.01118 -13,10.5c-0.97267,2.22324 0.4267,7 -2,7c-6.28348,0 -8.17294,-11.91353 -17,-7.5c-6.59398,3.29699 -10.85745,18.68467 -9,25c0.6916,2.35145 7.05177,6.94823 9.5,4.5c1.76204,-1.76204 -4.52278,-1.81308 -6,-0.5c-3.92395,3.48796 -4.5041,6.22846 -3.5,11.5c0.87569,4.5974 3.05445,8.86138 6,12.5c1.44977,1.7909 4.94806,4 7.5,4c0.16667,0 0.61785,-0.11785 0.5,0c-7.75557,7.75557 2.94242,18.98201 11,21.5c4.16838,1.30262 4.41243,1.21751 8,0.5c0.8801,-0.17602 2.09861,-1.80277 2.5,-1c3.19378,6.38755 3.83827,12.03677 13,14c4.48082,0.96018 6.77743,-0.81453 10,-3.5c1.36105,-1.13421 3.20768,-5.08465 4,-3.5c1.34483,2.68965 1.91783,6.45892 5,8c5.76782,2.88391 13.00501,-1.81232 17,-5.5c1.39634,-1.28893 3.04015,-4.71654 4.5,-3.5c6.03371,5.02809 5.51496,10.20958 15,11c4.83694,0.40308 11.21361,-6.58183 15,-5.5c6.99798,1.99942 13.0947,7.1351 21,4.5c4.40775,-1.46925 5.48097,-6.32699 9,-7.5c3.74375,-1.24792 8.13816,7.8134 14.5,5.5c7.49733,-2.7263 10.9559,-13.22795 15.5,-15.5c0.8065,-0.40325 3.84134,3.13408 4.5,3.5c2.86779,1.59321 4.35755,1.26683 8,0.5c2.63538,-0.55482 8.40744,-2.4974 10,-5c1.16667,-1.83333 -1.03659,-4.96341 0.5,-6.5c2.53045,-2.53045 6.25326,-1.43079 8,-9c0.33632,-1.45737 -3.64595,-12 -3.499,-12M678,324c-3.24789,6.49579 0.737,30.77676 3,37c0.33188,0.91267 3.3388,9 5.501,9M717,327.5c0,9.36964 2.43788,20.44093 3.5,30c0.24557,2.21009 -0.72269,6.5 1.501,6.5M761,332c2.02228,2.02228 -0.23339,22.09887 0,27c0.19644,4.12517 0.50235,10 1.501,10M788,325c2.70099,2.70099 1.38613,7.5838 1.5,11c0.3469,10.40714 1.45376,21.2688 3.5,31.5c0.71308,3.5654 2.051,6.40801 2.5,10c0.14417,1.15337 -1.16134,3.5 0.001,3.5" style="stroke:#ffffff;stroke-width:5;"/></svg>