<svg xmlns="http://www.w3.org/2000/svg" viewBox="385 207 476 346" style="stroke-linejoin:round;stroke-linecap:round;fill:none;"><path d="M748.5,225.5c-22.70191,0 -44.58148,23.83705 -33.5,46c5.03156,10.06311 15.34487,16.4457 25.5,20c30.31597,10.61059 77.49589,13.25616 98,-17.5c15.06693,-22.60039 -10.26822,-44.93047 -30.5,-51c-14.28058,-4.28417 -16.22083,-4.0267 -29,-4.5c-0.01606,-0.00059 -32.7938,0 -14.499,0M739,266c-0.16804,0.16804 -0.73664,0.5 -0.499,0.5M780.5,285.5c0.00033,0 0.00067,0 0.001,0M708,253c-7.78574,0 -13.24514,-1.52913 -15,9c-0.24728,1.48366 -0.28394,2.97285 1,4c5.66159,4.52927 12.25627,5 19.001,5M839,282c7.05156,0 14.40556,7.74305 9,14.5c-3.05967,3.82459 -10.04485,1.30424 -14,1c-1.83514,-0.14116 -7.33956,-0.5 -5.499,-0.5M728.5,293c-9.05939,0 -13.36655,9.47586 -16,17c-1.7014,4.86113 -3.03093,10.78521 0,15.5c1.17164,1.82255 6,4.66667 6,2.5c0,-4.25611 -9.09211,3.86514 -10,5c-4.64555,5.80694 -6.08215,14.19548 -5,21.5c0.74415,5.02302 3.18946,13.2671 7.5,16.5c3.41886,2.56415 5.96737,3.51398 9.5,2c0.68509,-0.29361 2,-1 2,-1c0,0 -2.7678,3.80341 -3.5,6c-2.25453,6.7636 -4.14687,15.85313 1.5,21.5c1.68109,1.68109 6.92355,3.90883 8.5,4.5c1.30207,0.48828 5.33314,-0.41671 5,-0.5c-7.70891,-1.92723 -13.1935,16.63724 -11.5,22c2.02499,6.41247 6.42015,10.74537 13,12.5c1.45827,0.38887 3.43281,-1.56719 4.5,-0.5c0.60093,0.60093 -0.5,1.65016 -0.5,2.5c0,3.6881 2.29109,9.97553 4.5,12.5c1.08641,1.24161 6.37333,2.90431 8,3c4.70016,0.27648 7.90541,-1.79345 10.5,-5.5c0.5147,-0.73528 0.10247,-2.5 1,-2.5c0.44357,0 2.16792,5.93019 3,7c2.29381,2.94918 6.2777,4.62038 10,4c6.86169,-1.14362 6.12501,-7.58334 10.5,-10.5c1.77591,-1.18394 2.24513,3.78509 4,5c1.80636,1.25055 8.083,1.778 10,0.5c3.96745,-2.64496 6.28209,-12.14105 10,-14c4.55194,-2.27597 10.20237,3.82962 16.5,-0.5c4.09668,-2.81647 8.17534,-8.1429 9.5,-13c0.52806,-1.93622 0.73449,-4.00681 0.5,-6c-0.2271,-1.93034 -4.91721,-5.31953 -3,-5c9.18909,1.53151 14.70497,0.3685 16.5,-11c1.07715,-6.82197 -8.31511,-19.73956 -7.5,-23c0.98878,-3.95513 6.38162,-5.05299 7,-10c1.24755,-9.98037 -2.45465,-17.67279 -10.5,-22.5c-1.02602,-0.61561 3.09685,-11.95041 3,-13.5c-0.41831,-6.69291 -5.50943,-17.01886 -8.5,-23c-0.05366,-0.10733 -7.00912,-8 -6.999,-8M758.5,454.5c-2.80395,4.20593 1.18846,26.7365 1.5,32.5c0.05291,0.97886 1.18824,20.5 1.501,20.5M808,451c-2.70348,5.40695 2.45876,16.72676 3,22.5c0.64462,6.87597 1.7646,13.70528 3,20.5c0.35777,1.96774 -1.999,6 0.001,6M810,340c9.26854,9.26854 8.41509,39.66036 11.5,52c0.62753,2.51011 1.37247,4.98989 2,7.5c0.61836,2.47345 -1.04858,7.5 1.501,7.5M709,333c-9.17195,0 -17.53844,8.6923 -25.5,12.5c-3.02585,1.44715 -6.07665,2.85561 -9,4.5c-1.49557,0.84126 -2.96522,1.73261 -4.5,2.5c-0.47112,0.23556 -2.02573,0.5 -1.499,0.5M653.5,338.5c-6.14426,0 -15.07157,5.07208 -16.5,11.5c-0.6905,3.10726 12.16264,2.70934 13,2.5c6.43112,-1.60778 12.30936,-6.91639 15.5,-12.5c2.02148,-3.53758 -4.02685,-3.78188 -6,-3.5c-1.32988,0.18998 -5.34238,0.5 -3.999,0.5M644.5,353.5c3.00626,6.01252 18.61599,23 23.501,23M668.5,339c-1.57613,0 -1.36059,5.45441 -1.5,6.5c-1.12121,8.40907 -0.6807,17.32239 1.5,25.5c0.00896,0.03361 1.81624,11 2.001,11M632,518c-6.96083,0 -8.50708,-8.59009 -5,-13.5c5.05716,-7.08002 21.32704,-12.67026 29.5,-8c5.98321,3.41898 -1.39793,16.29586 -3,19.5c-0.9093,1.81859 -2.78857,6.28857 -4,7.5c-0.11893,0.11893 -0.66719,0 -0.499,0M619,515c0,-3.00387 -9.70311,3.90622 -10.5,5.5c-1.1321,2.26419 4.25634,1.97463 4,3c-0.78286,3.13146 -7.48983,5.77542 -6,9.5c0.79311,1.98278 4.58995,0.93598 6,1.5c2.02946,0.81178 2.38175,3.09218 4.5,4c3.71157,1.59067 12.8797,-2.6203 15,-0.5c1.09217,1.09217 0.63277,2.97458 2,4c2.30823,1.73117 12.49557,-0.92206 15,-1.5c15.44785,-3.56489 33.43692,-5.70269 46.5,-15.5c7.11155,-5.33366 -4.25058,-4.25058 -5.5,-5.5c-1.79104,-1.79104 7.93905,-9.57012 0.5,-10.5c-5.58129,-0.69766 -9.12335,0.28248 -13.5,-3c-1.33307,-0.9998 -6.66533,0 -4.999,0M591,483c-1.88697,-3.77394 3.3139,-1.1485 5,-0.5c7.05235,2.71244 13.69867,10.98533 19,12.5c1.61603,0.46172 5.59949,-0.15969 7,-1c4.24567,-2.5474 1.87479,-13.78607 0,-17c-1.55064,-2.65824 -2.55704,-3.1428 -5,-4.5c-1.06038,-0.5891 -4.71203,-1 -3.499,-1M606.5,478.5c5.38388,0 9.96392,14.5 13.001,14.5M627.5,477c-1.65107,0 14.34254,-11.22444 16.5,-15c2.70137,-4.72739 -4.8905,-11.51771 -7.5,-14.5c-15.19535,-17.36611 -56.21673,-22.10409 -71.5,-3c-12.46875,15.58594 -11.57241,47.87348 12,51.5c5.89585,0.90705 16.17624,-0.04235 21.5,-3c0.66546,-0.3697 4.72702,-5 5.001,-5M570,476c-0.01536,0 -1.40318,-0.5 -0.999,-0.5M621.5,453c-0.40969,-0.40969 -0.37408,-1 0.501,-1M554.5,485c-8.2504,0 -18.6287,10.56139 -10.5,13c5.32442,1.59733 11.06055,-2.5 16.001,-2.5M640.5,441.5c0,-4.01767 14.62673,-9.23963 15.5,-4c0.61974,3.71847 -2.64083,11.55104 -5,14.5c-1.25357,1.56696 -6.50568,4 -4.499,4M604.5,431.5c6.0821,-6.0821 5.6145,-22.27101 2,-29.5c-1.54922,-3.09845 -7.62753,-5.38259 -8.5,-8c-0.74536,-2.23607 4.15388,-2.80008 5,-5c1.35545,-3.52417 0.93965,-9.08083 -0.5,-12.5c-2.28145,-5.41844 -5.27599,-8.91854 -11,-11c-2.24314,-0.81569 -7.75686,-0.51765 -10,0c-0.72627,0.1676 -1.85382,1.73088 -2,1c-1.33105,-6.65524 -1.14025,-11.46485 -8,-15.5c-5.46025,-3.21191 -14.08907,-2.86461 -19.5,0c-3.2257,1.70772 -2.78344,2.49206 -3.5,5c-0.20477,0.71668 -0.58655,2.62017 -1,2c-6.81389,-10.22083 -21.79978,-13.5401 -33,-8.5c-6.8953,3.10289 -6.08841,8.67683 -9,14.5c-0.42164,0.84327 -1.452,-1.2328 -2,-2c-1.16651,-1.63311 -2.83013,-2.88675 -4.5,-4c-3.32444,-2.21629 -8.93982,-4.40602 -13,-4c-16.38358,1.63836 -7.34531,12.34531 -12.5,17.5c-1.86339,1.86339 -4.112,-3.3856 -6.5,-4.5c-3.51808,-1.64177 -10.16344,-4.06584 -14,-2c-3.6786,1.98079 -10.4466,6.42233 -12,10.5c-0.61073,1.60316 -0.5,7.79693 -0.5,10c0,1 1,3 0,3c-1.96387,0 -3.69574,-5.29893 -6.5,-6c-6.96318,-1.7408 -14.40313,3.63272 -19,8.5c-5.47893,5.80121 -5.31752,14.73723 -0.5,21c2.17676,2.82979 9.0644,2.76029 8,2c-11.64746,-8.31962 -27.4936,7.4296 -28.5,18.5c-0.85092,9.36013 5.47485,20.40986 12,26.5c0.9804,0.91504 11.5,6.39899 11.5,1.5c0,-4.6961 -5.88555,3.32547 -6,5.5c-0.30854,5.86229 1.10008,9.76825 6,14c2.92571,2.52675 12.45802,2.4167 16,2c2.22075,-0.26126 8.23607,-3 6,-3c-11.78339,0 -4.72492,21.51146 7,22c6.41877,0.26745 10.55904,-4 16,-4c5.75388,0 4.55735,9.46161 11.5,8c6.12589,-1.28966 10.60631,-5.69029 16.5,-7c3.7637,-0.83638 6.8946,4.28545 12,3.5c3.6655,-0.56392 13.20053,-6.03298 17,-3.5c1.08309,0.72206 1.70834,2.33854 3,2.5c3.04263,0.38033 6.41681,-3 9.501,-3M448,502.5c-1.04455,-0.34818 0.22843,0.88336 0.5,5.5c0.03946,0.67081 1.1493,13 2.001,13M462.5,501.5c0,0.73452 3.9603,2.38089 4.5,4c1.15206,3.45617 1,6.14722 1,9.5c0,0.83433 -0.83333,2.5 0.001,2.5M528,502c4.9599,2.47995 4.06265,3.00237 4.5,10c0.13871,2.21936 -0.72269,6.5 1.501,6.5M549,502.5c0,4.8349 0.47052,10.19576 1.5,15c0.25378,1.18429 -0.21018,3.5 1.001,3.5" style="stroke:#ffffff;stroke-width:5;"/></svg>