<svg viewBox="0 0 200 200" xmlns="http://www.w3.org/2000/svg" stroke="white" stroke-width="5" stroke-linecap="round" stroke-linejoin="round" fill="none">
  <path d="M63 46L59 46L56 47L51 50L48 53L46 55L43 59L42 64L42 68L44 72L46 73L49 75L51 75L55 76L59 76L65 76L71 73L75 71L79 68L82 64L82 60L83 55L80 51L77 48L75 47L72 47L68 46L64 46
  M54 60L54 60
  M68 61L68 61
  M44 55L40 54L37 54L34 54L30 55L27 59L31 62L35 62L39 63
  M86 60L89 59L94 59L98 62L98 67L94 68L93 68L89 69L87 69L83 68L80 67
  M62 79L58 81L57 85L59 89L62 92L66 93L64 97L62 100L64 104L66 105L70 106L75 106L76 109L76 113L79 115L82 115L87 114L91 117L95 119L103 117L108 117L110 117L115 116L120 113L123 113L128 113L132 115L136 112L141 112L145 114L149 114L152 112L154 108L158 107L161 106L164 106L167 105L169 103L171 99L171 95L174 91L172 87L173 85L176 82L178 79L179 75L178 71L174 69L171 67L171 63L171 59L170 55L166 52L161 51L156 51L157 47L157 42L154 39L151 39L146 39L141 39L137 37L133 35L128 35L124 37L120 38L117 42L113 39L109 38L107 41L103 42L99 43L96 47L92 44L88 44L86 47
  M82 49L86 47
  M79 119L80 121L81 126L81 129L81 133L81 138L82 138
  M90 120L92 124L92 129L92 131L92 136L92 139
  M134 114L136 115L138 121L138 123L139 127L139 132L139 133
  M147 114L149 116L151 120L150 121L151 126L151 131L151 135L151 139L151 141"/>
</svg>
